P3
# Icon for OpenTESArena.
64 64
255
0 0 0 0 0 0 0 0 0 0 0 0 0 0 0 0 0 0 0 0 0 0 0 0 0 0 0 0 0 0 0 0 0 0 0 0 0 0 0 0 0 0 0 0 0 0 0 0 0 0 0 0 0 0 0 0 0 0 0 0 0 0 0 0 0 0 0 0 0 0 0 0 0 0 0 0 0 0 0 0 0 0 0 0 0 0 0 0 0 0 0 0 0 0 0 0 0 0 0 0 0 0 0 0 0 0 0 0 0 0 0 0 0 0 0 0 0 0 0 0 0 0 0 0 0 0 0 0 0 0 0 0 0 0 0 0 0 0 0 0 0 0 0 0 0 0 0 0 0 0 0 0 0 0 0 0 0 0 0 0 0 0 0 0 0 0 0 0 0 0 0 0 0 0 0 0 0 0 0 0 0 0 0 0 0 0 0 0 0 0 0 0
0 0 0 0 0 0 0 0 0 0 0 0 0 0 0 0 0 0 0 0 0 0 0 0 0 0 0 0 0 0 0 0 0 0 0 0 0 0 0 0 0 0 0 0 0 0 0 0 0 0 0 0 0 0 0 0 0 0 0 0 0 0 0 0 0 0 0 0 0 0 0 23 12 19 31 12 19 31 12 12 25 19 25 38 31 31 38 25 31 38 31 31 44 25 31 38 25 31 38 25 31 44 19 19 31 12 19 31 12 19 31 12 12 25 19 19 31 29 29 39 0 0 0 0 0 0 0 0 0 0 0 0 0 0 0 0 0 0 0 0 0 0 0 0 0 0 0 0 0 0 0 0 0 0 0 0 0 0 0 0 0 0 0 0 0 0 0 0 0 0 0 0 0 0 0 0 0 0 0 0 0 0 0 0 0 0 0 0 0 0 0 0
0 0 0 0 0 0 0 0 0 0 0 0 0 0 0 0 0 0 0 0 0 0 0 0 0 0 0 0 0 0 0 0 0 0 0 0 0 0 0 0 0 0 0 0 0 0 0 0 0 0 0 0 0 0 0 0 0 0 0 0 0 0 0 0 0 0 0 0 0 20 24 34 20 23 34 20 24 35 15 18 27 20 24 34 29 31 39 26 29 39 27 30 41 25 28 39 26 30 40 27 31 42 21 25 36 20 24 35 18 20 31 20 24 34 22 25 36 30 34 47 42 46 61 0 0 63 0 0 0 0 0 0 0 0 0 0 0 0 0 0 0 0 0 0 0 0 0 0 0 0 0 0 0 0 0 0 0 0 0 0 0 0 0 0 0 0 0 0 0 0 0 0 0 0 0 0 0 0 0 0 0 0 0 0 0 0 0 0 0 0 0 0
0 0 0 0 0 0 0 0 0 0 0 0 0 0 0 0 0 0 0 0 0 0 0 0 0 0 0 0 0 0 0 0 0 0 0 0 0 0 0 0 0 0 0 0 0 0 0 0 0 0 0 0 0 0 0 0 0 0 0 0 0 0 0 0 0 0 23 28 38 27 30 41 28 32 43 28 31 42 20 23 33 26 29 41 30 33 45 21 25 37 22 25 37 19 22 33 21 24 35 23 26 36 21 24 35 20 23 34 19 22 32 21 24 35 19 21 31 21 24 34 22 25 36 23 26 39 25 29 42 0 0 0 0 0 0 0 0 0 0 0 0 0 0 0 0 0 0 0 0 0 0 0 0 0 0 0 0 0 0 0 0 0 0 0 0 0 0 0 0 0 0 0 0 0 0 0 0 0 0 0 0 0 0 0 0 0 0 0 0 0 0 0
0 0 0 0 0 0 0 0 0 0 0 0 0 0 0 0 0 0 0 0 0 0 0 0 0 0 0 0 0 0 0 0 0 0 0 0 0 0 0 0 0 0 0 0 0 0 0 0 0 0 0 0 0 0 0 0 0 15 15 15 19 19 31 19 22 33 21 23 34 23 26 36 23 26 36 24 27 38 22 25 36 27 31 43 29 33 46 21 24 35 20 23 34 17 20 30 17 19 29 17 19 29 17 19 28 15 17 26 15 17 26 16 18 27 15 17 26 13 15 24 14 16 25 19 21 31 19 22 33 20 23 36 20 26 38 21 21 31 0 0 0 0 0 0 0 0 0 0 0 0 0 0 0 0 0 0 0 0 0 0 0 0 0 0 0 0 0 0 0 0 0 0 0 0 0 0 0 0 0 0 0 0 0 0 0 0 0 0 0 0 0 0
0 0 0 0 0 0 0 0 0 0 0 0 0 0 0 0 0 0 0 0 0 0 0 0 0 0 0 0 0 0 0 0 0 0 0 0 0 0 0 0 0 0 0 0 0 0 0 0 46 46 46 35 42 52 32 40 51 29 34 46 29 33 45 34 38 51 34 38 51 34 39 51 34 38 51 35 38 50 36 39 50 35 38 48 34 38 51 35 39 51 32 36 48 28 32 43 27 32 43 28 33 44 27 31 42 26 30 41 25 29 40 28 31 42 25 28 39 14 16 25 14 15 24 24 26 35 28 31 41 32 37 49 35 39 52 38 43 55 43 49 62 46 57 67 0 0 0 0 0 0 0 0 0 0 0 0 0 0 0 0 0 0 0 0 0 0 0 0 0 0 0 0 0 0 0 0 0 0 0 0 0 0 0 0 0 0 0 0 0 0 0 0
0 0 0 0 0 0 0 0 0 0 0 0 0 0 0 0 0 0 0 0 0 0 0 0 0 0 0 0 0 0 0 0 0 0 0 0 0 0 0 0 0 0 0 0 0 117 121 133 98 104 117 80 87 100 80 87 100 62 69 83 55 61 75 55 61 76 50 56 71 52 58 74 51 56 71 54 54 62 56 53 56 54 52 56 48 52 62 48 53 68 54 60 76 55 62 80 56 63 81 59 65 83 47 53 67 38 44 57 55 61 78 65 71 91 55 59 76 21 24 34 16 17 26 39 36 39 51 47 47 54 56 62 57 60 69 57 60 69 57 61 69 58 61 69 58 58 64 58 51 58 0 0 0 0 0 0 0 0 0 0 0 0 0 0 0 0 0 0 0 0 0 0 0 0 0 0 0 0 0 0 0 0 0 0 0 0 0 0 0 0 0 0
0 0 0 0 0 0 0 0 0 0 0 0 0 0 0 0 0 0 0 0 0 0 0 0 0 0 0 0 0 0 0 0 0 0 0 0 0 0 0 127 127 127 135 135 147 131 129 142 129 127 139 131 130 144 148 147 159 107 108 123 90 91 107 76 80 96 64 70 86 78 81 96 90 90 106 94 92 105 94 92 103 89 93 103 68 75 88 36 40 53 47 53 68 56 62 79 63 68 85 74 76 93 68 69 84 56 58 71 72 74 89 73 75 89 61 61 74 23 26 35 20 22 31 45 42 46 55 48 47 52 49 53 51 50 55 51 50 54 51 50 54 51 50 54 55 53 58 58 59 65 58 64 75 88 99 110 0 0 0 0 0 0 0 0 0 0 0 0 0 0 0 0 0 0 0 0 0 0 0 0 0 0 0 0 0 0 0 0 0 0 0 0
0 0 0 0 0 0 0 0 0 0 0 0 0 0 0 0 0 0 0 0 0 0 0 0 0 0 0 0 0 0 0 0 0 0 0 0 0 0 42 81 89 104 100 108 122 88 91 101 86 82 86 103 104 118 113 112 127 89 91 107 77 79 96 61 65 80 55 61 75 53 58 71 54 59 71 72 75 89 73 77 92 63 69 83 52 58 71 34 39 50 59 64 79 63 69 84 63 64 74 65 61 65 65 60 65 59 55 59 60 57 60 56 51 52 48 46 49 22 25 33 17 20 29 35 37 46 42 43 51 40 43 55 41 47 61 39 44 58 39 44 58 40 45 58 52 58 72 56 64 78 55 64 78 59 68 82 51 61 76 0 0 0 0 0 0 0 0 0 0 0 0 0 0 0 0 0 0 0 0 0 0 0 0 0 0 0 0 0 0 0 0 0
0 0 0 0 0 0 0 0 0 0 0 0 0 0 0 0 0 0 0 0 0 0 0 0 0 0 0 0 0 0 0 0 0 0 0 0 25 29 40 53 59 72 64 70 80 61 63 70 56 53 57 70 72 86 65 68 83 54 59 74 43 48 62 32 36 48 41 46 58 58 64 79 57 63 78 62 66 80 50 54 67 36 41 53 34 40 51 38 43 55 62 65 80 67 70 85 70 73 88 75 78 92 69 72 85 62 62 72 56 56 64 49 49 53 44 44 48 22 25 34 18 20 29 30 34 45 34 38 50 33 38 49 35 40 52 34 39 51 39 44 57 37 42 55 40 46 58 41 47 60 40 45 59 44 51 65 47 54 68 60 66 78 0 0 0 0 0 0 0 0 0 0 0 0 0 0 0 0 0 0 0 0 0 0 0 0 0 0 0 0 0 0
0 0 0 0 0 0 0 0 0 0 0 0 0 0 0 0 0 0 0 0 0 0 0 0 0 0 0 0 0 0 0 0 0 16 19 28 22 26 35 46 50 62 56 56 62 45 45 52 28 30 39 27 31 41 25 28 39 23 25 36 30 33 45 35 41 52 40 46 58 46 52 65 45 49 59 42 42 48 40 39 45 39 39 44 37 38 45 36 37 44 38 39 46 34 37 48 53 58 71 71 76 92 64 67 80 55 50 51 46 43 46 44 43 46 43 44 51 22 25 34 18 20 30 30 34 45 38 43 54 42 45 56 43 48 61 44 49 62 44 48 59 39 43 56 35 40 52 35 41 53 35 40 52 36 41 54 37 43 56 36 42 56 36 36 36 0 0 0 0 0 0 0 0 0 0 0 0 0 0 0 0 0 0 0 0 0 0 0 0 0 0 0
0 0 0 0 0 0 0 0 0 0 0 0 0 0 0 0 0 0 0 0 0 0 0 0 0 0 0 0 0 0 28 33 48 21 23 32 23 26 37 44 50 63 46 51 64 32 36 48 21 24 35 27 31 41 28 32 43 25 29 40 36 41 53 37 42 54 38 44 56 39 44 57 42 45 54 53 50 53 57 52 55 56 52 55 50 48 53 40 39 44 37 37 42 34 38 48 58 64 77 75 79 95 69 73 87 47 46 51 28 30 38 29 32 40 39 41 49 22 25 33 21 24 33 36 41 52 44 47 59 49 48 54 50 55 65 49 53 64 49 46 49 43 43 49 35 39 50 34 39 52 33 38 51 37 43 56 37 44 56 31 35 48 31 37 47 0 0 0 0 0 0 0 0 0 0 0 0 0 0 0 0 0 0 0 0 0 0 0 0 0 0 0
0 0 0 0 0 0 0 0 0 0 0 0 0 0 0 0 0 0 0 0 0 0 0 0 0 0 0 32 32 49 30 34 45 22 25 34 21 24 35 31 35 48 27 31 42 20 23 33 24 27 37 24 27 38 26 30 40 30 34 44 32 36 46 32 37 47 36 40 51 38 43 54 37 43 53 43 47 57 45 49 59 45 49 59 38 41 52 29 32 43 27 30 40 28 32 43 36 40 51 38 43 55 38 42 53 33 38 48 27 31 41 26 29 39 32 35 44 24 28 37 24 26 37 33 37 48 33 37 47 38 40 48 38 43 53 36 40 50 37 39 49 33 36 48 33 37 50 37 41 55 40 45 57 44 50 62 38 43 54 35 40 52 41 46 57 40 48 59 0 0 0 0 0 0 0 0 0 0 0 0 0 0 0 0 0 0 0 0 0 0 0 0
0 0 0 0 0 0 0 0 0 0 0 0 0 0 0 0 0 0 0 0 0 0 0 0 69 69 92 67 74 97 56 61 82 41 46 62 26 30 41 19 22 32 20 23 33 20 23 32 29 33 43 28 31 42 37 37 44 48 45 48 50 46 48 47 44 47 48 46 49 47 45 47 47 49 57 54 59 73 61 67 79 65 69 79 60 63 73 65 70 83 62 68 84 58 63 78 56 59 74 58 63 79 49 49 56 45 44 50 36 39 50 35 39 50 39 44 56 37 42 53 29 32 43 19 22 31 18 21 30 27 30 40 33 37 48 44 50 63 64 71 89 74 81 103 72 79 99 71 78 98 73 81 95 75 84 97 67 74 86 66 74 87 68 77 91 67 77 91 72 83 98 0 0 0 0 0 0 0 0 0 0 0 0 0 0 0 0 0 0 0 0 0
0 0 0 0 0 0 0 0 0 0 0 0 0 0 0 0 0 0 0 0 0 0 0 0 75 84 100 77 83 105 72 78 103 60 67 87 39 44 58 20 23 33 28 32 42 32 36 46 35 39 50 50 55 67 69 73 85 78 80 90 90 93 102 71 74 84 68 71 82 59 62 72 55 59 71 62 67 82 64 67 80 69 67 72 70 66 68 66 66 72 59 63 76 59 64 79 77 71 87 89 74 92 82 66 77 83 66 77 78 67 82 79 66 82 84 71 86 85 71 87 63 52 64 37 22 29 36 21 28 40 26 35 48 38 48 83 73 85 102 94 106 103 97 109 101 95 107 98 91 102 82 74 85 73 67 78 62 58 70 48 55 69 48 55 69 48 55 69 48 52 64 45 52 58 0 0 0 0 0 0 0 0 0 0 0 0 0 0 0 0 0 0
0 0 0 0 0 0 0 0 0 0 0 0 0 0 0 0 0 0 0 0 0 47 47 57 50 54 65 51 55 68 48 53 69 44 50 64 35 40 52 23 26 36 49 55 68 65 72 86 65 72 86 93 95 107 118 115 126 131 129 142 144 142 154 101 101 116 93 93 108 74 78 92 67 72 86 80 82 96 88 88 102 96 95 108 95 95 108 90 95 107 61 67 78 67 32 39 133 31 33 156 26 27 155 27 28 156 29 30 151 31 34 152 32 33 153 32 33 151 33 35 142 32 34 138 29 30 138 32 33 136 34 35 133 38 38 141 46 48 141 49 50 135 51 52 133 50 52 133 51 51 127 48 48 120 47 48 95 43 46 43 42 53 36 42 54 38 42 53 48 46 48 53 50 48 36 36 36 0 0 0 0 0 0 0 0 0 0 0 0 0 0 0
0 0 0 0 0 0 0 0 0 0 0 0 0 0 0 0 0 0 55 45 45 56 48 46 56 49 48 53 48 50 40 41 48 26 30 41 24 28 39 19 22 32 42 48 60 74 81 96 80 88 102 73 74 80 81 78 83 104 105 120 101 102 116 81 83 98 69 72 86 53 57 71 53 58 70 53 58 70 54 59 71 63 66 79 61 66 79 57 63 75 47 49 60 87 31 35 135 29 27 141 20 16 141 20 16 140 20 16 140 21 17 139 21 17 138 22 18 136 23 20 134 25 21 132 26 23 130 28 25 129 30 26 127 31 28 125 32 29 124 33 30 122 35 32 120 38 36 120 44 42 119 42 41 104 41 41 69 40 46 37 41 53 35 41 53 41 43 50 56 49 46 51 49 49 45 45 51 0 0 0 0 0 0 0 0 0 0 0 0 0 0 0
0 0 0 0 0 0 0 0 0 0 0 0 0 0 0 43 40 46 46 44 46 50 46 47 50 46 47 49 46 47 41 39 43 32 33 41 30 33 42 19 21 31 32 36 47 59 64 76 62 64 73 54 53 59 54 53 59 77 62 74 58 56 69 47 52 64 37 40 52 31 35 45 46 50 62 63 68 82 55 61 73 43 48 58 36 40 50 36 40 49 37 39 48 99 29 32 133 27 24 134 12 7 133 22 17 132 26 22 132 27 23 131 27 23 130 27 24 128 28 25 126 29 26 124 30 28 122 32 29 121 33 30 120 32 29 123 29 25 118 23 19 117 25 20 115 33 29 115 42 40 113 40 39 73 41 47 38 43 54 33 37 49 32 36 48 37 40 50 50 50 55 52 49 50 53 47 44 46 23 23 0 0 0 0 0 0 0 0 0 0 0 0
0 0 0 0 0 0 0 0 0 0 0 0 42 42 53 42 45 56 41 46 59 37 42 54 36 41 52 36 41 52 40 42 50 48 45 46 47 44 46 45 25 30 67 29 36 95 38 42 106 29 28 100 25 26 104 20 23 128 14 15 104 16 18 90 17 21 97 16 20 100 23 26 98 26 31 93 36 42 55 42 48 43 41 45 43 41 44 43 41 44 44 40 43 107 25 27 136 25 22 136 18 13 131 29 26 128 28 28 125 32 33 127 28 28 117 29 30 117 31 31 116 32 33 112 30 31 112 33 34 114 36 35 138 32 32 146 33 32 126 29 26 119 22 18 117 30 27 117 40 38 107 40 39 61 46 48 46 46 50 35 38 48 32 37 49 38 41 50 51 51 55 51 48 49 52 49 49 49 53 56 0 0 0 0 0 0 0 0 0 0 0 0
0 0 0 0 0 0 0 0 0 40 51 61 32 37 49 40 45 57 42 47 61 38 44 57 36 41 54 35 40 51 38 40 48 61 38 39 89 34 34 108 28 28 123 28 27 122 29 28 120 29 27 119 31 29 119 32 29 121 31 28 122 30 27 125 27 24 131 23 20 137 18 16 141 15 14 146 10 9 120 17 16 91 33 33 63 50 53 55 54 58 52 46 48 111 23 24 140 23 20 134 25 21 128 27 26 97 47 53 71 57 65 58 35 40 40 27 34 47 33 38 50 36 41 36 23 31 41 30 37 59 42 47 114 36 40 162 27 27 144 32 30 122 25 21 120 26 22 118 39 37 108 43 43 68 59 65 56 53 53 47 46 48 39 44 56 47 53 64 58 61 68 43 45 54 42 47 58 54 61 77 0 0 0 0 0 0 0 0 0 0 0 0
0 0 0 0 0 0 0 0 0 38 45 58 35 40 53 36 42 54 31 36 49 28 33 46 27 31 43 32 28 37 68 30 36 101 36 37 111 38 36 104 40 38 104 38 36 105 37 34 107 37 34 109 33 30 112 31 27 114 27 23 116 25 21 118 24 19 120 22 18 122 21 16 124 23 19 129 24 20 137 21 19 143 13 12 103 26 30 44 44 54 36 35 44 110 16 20 139 23 21 129 30 28 84 26 29 35 35 44 34 38 48 34 38 48 30 33 42 31 34 42 31 34 43 23 25 35 28 31 40 37 41 51 68 48 58 142 35 37 161 27 27 136 26 23 122 21 16 119 35 32 115 40 39 84 56 64 61 65 75 58 62 72 46 53 67 48 54 68 44 50 62 34 39 51 38 43 56 46 52 66 0 0 0 0 0 0 0 0 0 0 0 0
0 0 0 0 0 0 56 63 77 49 57 71 40 45 58 32 36 48 30 34 45 29 33 45 37 33 43 82 33 36 110 39 38 104 45 43 104 42 40 104 42 41 106 39 39 107 38 37 114 40 40 115 38 38 119 38 37 119 38 36 119 35 32 120 25 21 122 20 15 123 19 14 125 17 12 126 16 11 128 21 16 135 21 18 127 18 19 52 34 41 32 33 42 100 18 22 135 22 21 99 30 31 53 40 48 39 43 53 33 36 46 36 41 51 31 35 45 26 29 38 23 25 34 21 24 34 26 29 39 30 33 43 34 36 44 82 35 37 147 27 26 149 28 26 124 22 17 121 29 26 116 40 38 97 45 48 63 62 74 62 67 79 53 59 70 40 46 59 31 37 47 41 47 60 53 60 75 56 63 78 56 56 85 0 0 0 0 0 0 0 0 0
0 0 0 0 0 0 40 46 60 44 50 64 37 43 56 35 40 52 34 38 49 30 34 45 71 40 45 107 47 46 105 46 45 99 41 42 80 40 44 53 29 35 46 28 35 52 38 46 66 46 55 72 46 54 95 38 43 117 32 33 121 35 35 124 33 31 124 27 23 126 17 12 127 15 10 129 14 8 130 12 7 132 18 13 136 23 21 91 25 28 36 36 44 88 22 26 127 24 23 67 36 41 65 71 82 75 82 94 52 57 69 45 49 61 28 32 41 18 26 27 23 40 31 22 32 31 22 26 36 24 28 38 23 26 36 33 35 42 102 29 31 158 26 25 129 27 23 123 24 20 118 39 37 111 41 40 71 45 46 49 47 49 43 44 50 34 38 50 30 36 46 33 39 50 37 44 56 41 47 59 42 42 56 0 0 0 0 0 0 0 0 0
0 0 0 22 25 35 26 29 41 29 33 45 30 35 47 33 38 50 30 34 45 37 29 38 89 48 49 83 42 44 58 32 39 46 39 48 37 43 54 24 27 37 23 26 35 34 38 48 42 47 59 44 49 61 46 48 60 55 45 55 70 39 46 100 32 34 125 35 34 127 28 24 129 13 8 131 12 6 132 10 5 134 9 3 135 24 20 128 23 23 64 35 42 101 24 27 95 32 35 43 42 51 49 53 64 51 55 67 43 47 59 34 38 48 17 24 26 30 60 35 43 90 47 28 52 35 20 23 31 20 23 32 21 26 32 26 30 40 67 28 35 160 22 22 137 28 25 124 20 15 121 36 33 115 41 40 82 38 41 33 35 44 31 35 46 31 35 46 30 35 46 27 33 43 26 30 40 26 31 42 28 28 42 0 0 0 0 0 0 0 0 0
0 0 0 12 14 23 14 17 26 17 19 29 17 19 29 22 24 35 21 23 33 38 30 39 72 44 48 42 28 36 20 23 34 25 29 39 30 34 45 22 24 34 19 21 30 25 28 37 26 29 39 26 29 38 26 29 38 25 27 36 29 26 34 72 29 33 127 33 33 132 26 22 131 11 6 133 12 7 138 17 13 148 19 15 155 23 21 150 19 18 71 26 31 78 24 28 63 30 35 29 32 40 29 32 40 28 30 39 22 25 34 19 22 29 23 41 29 38 77 42 45 94 49 43 86 48 32 59 38 20 35 27 24 48 30 22 36 32 27 22 30 135 21 23 146 27 25 125 19 15 123 31 27 117 41 40 99 39 39 32 26 34 24 28 38 26 29 41 26 29 41 19 22 32 13 16 24 14 18 26 12 16 24 0 0 0 0 0 0 0 0 0
0 0 0 18 22 32 21 25 34 23 27 37 25 28 39 25 29 40 28 32 43 33 37 50 40 40 53 30 34 46 27 30 41 28 32 42 29 33 43 27 31 41 27 30 40 29 32 42 28 31 41 26 28 38 34 28 37 53 26 32 98 30 33 133 28 26 137 19 15 133 18 13 142 21 18 154 23 21 165 22 21 171 16 16 141 20 22 104 29 35 49 35 44 33 36 45 30 32 41 29 32 41 29 32 41 28 31 39 23 26 33 27 47 34 56 116 59 59 122 61 44 91 48 49 103 53 47 100 51 32 67 37 34 73 39 34 73 40 28 42 32 113 22 25 155 26 25 127 21 16 124 25 21 119 41 38 108 41 40 47 32 40 25 28 39 18 21 31 25 28 40 25 29 40 21 25 34 18 21 31 17 19 32 0 0 0 0 0 0 0 0 0
0 0 0 34 41 53 46 53 68 53 60 77 64 70 90 65 72 92 68 74 94 63 71 89 60 67 84 51 56 68 54 57 65 69 76 88 65 71 84 53 60 72 50 56 68 44 49 60 45 47 58 81 42 48 118 42 43 130 36 35 135 26 22 131 20 15 141 24 20 136 31 31 128 33 36 131 25 27 95 21 25 85 39 46 63 55 65 58 63 74 59 64 76 56 61 72 51 55 66 46 49 57 44 47 54 45 49 60 40 44 53 35 59 43 56 115 60 39 76 45 32 63 37 44 92 48 34 68 39 24 46 31 28 56 34 41 89 45 34 69 39 93 28 27 161 25 24 131 22 18 125 20 15 121 37 34 113 42 41 71 43 50 34 38 50 20 23 33 24 27 38 35 40 52 46 53 69 51 58 74 44 51 66 0 0 63 0 0 0 0 0 0
0 0 0 45 51 65 57 66 82 72 80 96 89 98 113 92 102 117 90 99 115 73 81 96 63 71 86 56 59 68 56 56 60 78 85 98 76 83 97 63 70 83 66 68 80 82 57 65 105 51 56 135 44 44 134 32 29 130 25 21 137 28 25 146 34 32 133 36 38 83 43 50 54 55 65 52 43 52 27 29 38 52 57 68 85 92 103 91 97 109 82 88 100 76 82 94 71 74 85 79 77 81 63 61 63 55 57 67 45 49 59 36 59 43 48 95 53 24 34 32 27 50 33 45 93 49 29 50 37 21 24 32 21 24 31 25 48 31 30 60 36 72 27 29 160 24 24 136 25 21 126 17 12 123 31 27 115 42 41 83 41 45 36 39 50 24 28 38 19 22 32 34 39 51 54 61 77 64 72 88 53 60 74 36 48 60 0 0 0 0 0 0
0 0 0 53 59 76 56 62 77 69 75 90 73 81 95 65 72 86 65 71 83 65 71 84 55 59 70 44 48 59 37 40 50 42 47 59 42 43 55 60 50 59 100 55 60 132 52 52 132 40 38 128 27 23 134 29 26 144 36 35 122 38 40 97 46 52 82 60 70 75 78 90 87 89 101 58 61 71 27 30 38 37 41 50 82 89 99 93 100 111 73 79 91 69 74 86 93 94 103 133 129 135 102 98 101 55 52 55 40 42 49 34 47 43 35 59 42 30 54 37 36 72 41 38 77 43 24 37 34 23 26 36 23 26 35 22 39 30 29 58 36 60 27 30 160 25 25 137 27 24 127 16 11 124 27 22 115 42 41 88 49 54 45 51 64 26 29 40 29 33 44 48 55 68 55 61 76 65 71 86 63 70 85 49 60 72 0 0 0 0 0 0
0 0 0 49 55 69 51 58 72 66 73 88 73 81 96 51 57 72 50 52 60 65 66 75 55 55 60 44 46 52 37 40 50 41 42 53 83 44 49 120 53 55 129 50 49 126 35 32 125 25 20 135 34 31 132 46 46 109 48 52 68 46 53 49 53 63 52 55 63 57 59 67 60 61 70 45 49 57 25 28 36 29 32 40 46 52 61 50 55 65 49 53 64 47 52 62 51 53 61 57 59 67 56 59 68 45 48 56 42 46 56 42 46 56 29 36 39 37 71 42 43 87 48 32 58 39 25 31 37 26 29 39 24 28 36 26 38 36 29 54 36 60 34 30 159 25 25 139 30 27 127 17 12 125 25 21 116 42 40 89 54 60 52 59 73 26 30 40 30 35 46 48 55 69 53 60 75 66 73 88 70 80 94 63 72 84 0 0 0 0 0 0
0 0 0 45 51 61 48 52 62 53 57 66 67 69 76 51 55 65 42 47 58 53 55 61 54 51 53 55 51 50 57 56 59 70 61 71 115 43 44 123 43 42 121 30 26 124 19 14 132 36 33 132 47 47 91 62 68 72 75 88 68 73 86 69 71 82 66 64 67 66 61 62 65 61 62 46 47 53 26 28 37 30 33 42 39 44 53 39 44 53 44 49 59 44 49 59 42 44 50 44 47 54 50 55 66 55 60 71 47 51 62 46 50 61 29 33 39 36 69 42 33 65 38 26 34 36 32 36 45 31 35 44 29 32 42 30 47 39 32 60 39 59 36 34 155 25 25 141 31 28 128 18 13 125 22 18 116 41 39 95 54 59 60 64 78 28 32 43 31 34 43 47 52 62 50 54 64 58 62 73 63 67 78 52 57 68 0 0 0 0 0 0
0 0 0 49 49 51 51 51 55 51 51 57 53 52 57 45 47 56 49 55 66 67 68 74 63 62 65 67 66 70 64 64 70 84 47 54 126 28 27 120 30 27 123 19 14 127 24 20 139 45 44 120 55 59 81 75 86 77 81 93 77 80 92 85 87 100 95 98 109 80 80 89 71 70 79 47 49 57 23 25 33 23 25 34 33 37 46 39 43 52 49 55 65 49 55 65 44 48 57 46 51 61 49 54 65 45 49 59 43 46 57 46 50 61 31 37 42 36 67 41 32 59 39 32 36 44 41 45 55 39 43 53 32 36 45 28 40 39 29 44 39 65 31 37 159 26 26 142 31 28 128 18 12 125 22 17 116 40 38 101 69 75 70 78 91 28 31 42 31 32 37 49 49 49 52 50 51 55 51 51 54 51 52 51 49 53 0 0 0 0 0 0
0 0 0 51 51 55 65 67 79 78 81 96 73 77 92 75 78 92 87 91 105 81 89 102 65 73 87 61 67 81 52 57 68 76 36 42 126 27 25 121 24 20 125 17 12 130 32 28 136 46 46 81 49 53 59 57 60 60 57 61 61 59 62 65 65 70 83 88 99 89 91 103 66 69 80 37 41 50 22 23 30 20 22 31 33 36 45 36 40 48 43 47 57 39 43 51 41 44 52 43 48 57 43 48 57 45 50 60 57 61 73 54 59 70 39 44 52 31 50 39 33 52 40 42 46 56 52 58 69 50 55 67 35 38 49 29 33 43 29 32 42 48 33 43 145 28 30 141 31 28 128 18 12 124 27 22 114 43 42 84 65 73 57 64 76 25 28 39 31 33 39 49 50 53 56 58 66 68 71 84 57 63 76 48 54 67 36 36 72 0 0 0
0 0 0 41 43 51 52 56 68 66 71 85 68 73 88 74 79 94 75 81 95 74 81 95 71 78 91 53 60 73 46 52 64 78 39 43 127 26 24 123 20 16 127 15 10 132 37 33 137 47 48 77 59 66 63 64 71 66 66 72 87 83 86 97 94 98 123 123 133 132 131 142 88 90 100 37 40 49 20 22 29 17 19 26 33 37 45 36 40 49 40 44 54 32 35 43 34 37 45 40 43 53 40 44 53 43 47 56 62 66 79 62 67 79 45 49 59 29 33 40 31 35 43 50 55 66 58 63 75 49 55 66 39 44 55 45 49 61 47 51 63 59 50 61 146 32 34 140 32 29 128 18 13 123 31 28 108 40 40 53 42 51 35 40 51 25 28 39 32 34 42 47 48 52 54 56 64 78 83 98 68 74 90 48 56 72 30 45 60 0 0 0
0 0 0 43 49 61 44 50 64 47 53 67 50 56 70 57 64 78 58 65 79 62 68 81 57 59 67 40 46 53 40 68 52 79 54 34 128 25 22 125 19 15 128 14 9 133 37 34 138 51 53 92 81 92 75 81 94 66 71 85 72 76 86 86 88 98 134 133 143 134 134 144 110 111 121 56 58 67 21 23 30 16 17 24 31 34 43 39 43 53 35 39 48 36 40 49 42 46 56 43 47 57 41 45 55 40 43 54 50 54 66 52 56 68 35 39 49 26 29 39 29 32 41 38 42 52 38 42 52 28 31 40 33 36 46 96 97 108 116 116 128 86 74 83 145 32 32 139 32 29 128 20 15 121 36 33 103 40 41 43 39 49 33 38 49 25 28 38 29 34 45 33 39 50 34 39 51 50 57 71 53 60 75 47 53 68 41 48 62 0 0 0
0 0 0 39 43 57 40 46 59 39 44 58 37 41 55 45 51 65 44 51 64 40 45 57 36 44 48 30 57 39 38 85 40 88 67 32 131 25 23 125 23 19 129 13 8 134 32 28 127 42 43 54 44 52 43 47 58 44 49 59 37 41 50 30 33 41 39 41 49 41 42 51 38 40 48 25 28 35 17 19 26 15 16 23 20 22 30 29 32 42 30 33 42 34 38 47 40 45 55 39 43 53 35 38 48 28 31 41 29 31 40 28 30 39 34 37 46 56 57 66 59 60 69 37 39 48 22 24 32 35 38 47 78 80 91 140 138 148 146 144 155 100 87 96 145 32 34 138 31 28 127 24 20 119 38 36 99 37 37 32 25 33 22 25 36 20 23 34 18 21 31 22 25 36 34 39 52 44 51 64 43 49 63 37 44 56 30 34 47 0 0 0
0 0 0 22 26 37 25 29 41 26 30 41 24 27 38 24 27 38 21 25 34 20 24 32 22 40 31 31 76 36 35 86 39 65 74 35 123 29 23 127 25 21 130 12 6 135 25 21 117 38 39 29 24 32 21 24 32 21 24 31 20 23 30 19 22 29 20 22 30 20 22 30 20 22 29 22 23 30 22 24 32 21 23 31 21 23 32 24 26 36 28 30 40 31 34 45 30 33 43 26 29 38 23 25 33 18 20 28 18 20 28 19 21 28 53 55 64 124 123 133 153 151 160 65 66 76 20 22 29 23 25 33 33 35 45 47 48 57 46 48 57 49 33 42 139 28 29 136 29 26 126 28 23 117 39 37 76 33 36 22 22 31 20 23 33 22 24 35 22 25 35 21 24 35 22 26 37 25 29 41 22 26 37 19 22 32 15 17 26 0 0 0
0 0 0 41 41 47 42 43 49 47 48 55 54 59 70 45 51 64 44 50 62 40 46 57 37 53 51 36 78 43 36 88 41 46 79 37 114 32 23 128 27 23 131 12 6 136 23 19 129 47 50 76 71 83 78 81 93 67 71 83 60 63 76 49 53 65 53 58 70 53 58 69 51 52 60 48 47 50 46 49 58 36 39 48 32 35 43 37 40 49 42 46 56 55 58 70 42 46 56 27 29 39 22 24 33 19 21 29 19 21 29 19 21 28 22 24 32 63 64 74 111 110 121 41 43 51 18 20 27 18 19 27 18 19 27 18 20 28 20 22 31 87 25 30 156 29 29 133 30 26 124 32 29 112 39 39 67 48 57 46 51 64 46 50 62 46 49 58 47 51 62 40 44 54 34 36 45 35 40 52 27 32 44 23 26 38 19 22 35 15 15 31
0 0 0 57 59 65 62 65 71 78 82 88 77 83 94 64 72 85 62 70 84 53 59 73 58 65 79 56 70 75 47 90 57 48 100 45 107 37 23 129 28 24 131 13 7 136 23 19 135 57 61 130 125 138 137 138 149 105 109 121 88 91 104 66 71 84 66 71 84 68 72 85 64 65 74 51 49 51 61 64 71 62 68 77 50 54 65 65 71 82 59 63 74 67 68 80 47 49 61 27 29 40 23 26 35 28 30 39 27 29 38 25 27 37 25 28 38 34 38 48 38 41 51 22 25 33 19 20 28 18 19 27 18 20 28 21 23 33 31 33 43 119 31 35 155 30 30 132 30 26 121 35 33 94 45 49 61 62 75 55 61 75 51 53 61 55 51 51 66 70 80 63 65 72 54 51 53 58 61 72 48 55 70 34 39 53 24 27 41 14 14 28
0 0 0 53 59 76 56 64 78 66 74 88 56 62 75 47 54 66 46 52 64 41 46 58 45 51 63 50 58 69 48 83 60 40 94 43 88 45 25 128 28 25 130 14 8 136 23 19 137 58 60 107 104 115 95 98 110 80 85 98 66 70 82 58 63 75 52 56 67 57 61 73 67 71 85 46 50 59 62 68 77 81 88 98 63 68 79 58 63 74 40 44 54 32 34 43 26 29 38 30 32 42 32 34 44 34 37 45 33 36 44 33 37 46 46 49 60 65 69 80 55 60 72 44 49 60 24 27 35 18 19 27 19 21 29 27 30 41 56 44 54 140 33 35 150 30 29 128 32 28 112 39 39 70 53 63 62 69 83 61 69 83 54 57 66 63 62 66 76 84 98 68 76 89 53 60 72 56 63 77 51 59 73 38 44 58 24 28 42 14 14 28
0 0 0 57 65 81 58 67 81 56 64 78 48 55 69 34 39 51 30 32 42 36 41 51 38 43 54 40 45 57 48 63 64 39 82 46 69 61 31 127 28 25 130 16 11 135 24 20 128 50 53 71 70 83 59 63 76 62 67 80 55 61 72 50 56 67 49 55 65 54 60 70 58 63 75 66 71 83 64 70 81 61 66 78 59 64 75 50 55 65 40 44 53 38 42 51 38 41 51 47 51 63 47 51 63 32 35 44 30 33 42 41 46 56 56 60 72 60 64 75 54 59 71 52 57 69 26 29 38 19 21 30 19 21 29 22 25 35 57 37 46 150 30 31 142 32 29 124 35 32 83 37 41 42 47 59 52 59 73 58 65 80 49 55 66 60 65 76 65 72 87 58 65 80 52 60 74 52 60 74 47 54 68 38 43 57 23 27 39 14 14 28
0 0 0 60 68 85 64 72 88 67 76 91 68 76 90 48 55 67 44 43 49 49 52 61 43 49 61 39 45 56 55 63 74 47 85 57 44 68 34 115 31 24 130 19 15 133 23 18 135 46 47 72 56 61 46 47 54 46 50 59 54 60 71 53 59 70 55 61 72 62 68 80 67 73 86 89 95 108 91 98 110 72 77 90 66 71 84 69 75 87 61 67 79 69 74 86 81 85 97 81 85 97 51 55 66 25 27 37 23 25 33 29 33 42 32 36 47 33 37 47 37 40 50 43 47 58 27 29 39 26 29 39 25 28 37 18 21 29 79 25 30 155 29 29 133 36 32 122 36 34 72 36 41 35 38 49 48 49 54 56 57 62 48 53 62 49 57 70 70 78 93 73 82 97 64 72 87 64 72 87 58 66 81 51 58 73 30 35 48 14 28 42
0 0 0 0 0 0 71 83 97 75 86 100 73 82 95 56 63 76 39 42 52 29 32 43 23 27 38 19 22 31 32 44 47 35 61 46 27 51 30 100 32 25 129 22 18 132 18 13 139 39 38 59 37 41 31 33 41 35 37 43 38 42 50 36 40 50 40 44 55 62 67 79 76 82 94 60 63 74 50 53 62 38 42 52 48 53 64 70 76 87 68 74 86 72 77 90 69 73 85 54 59 70 41 45 56 33 36 46 38 39 45 36 39 49 42 46 57 44 49 60 38 43 53 36 40 50 23 25 34 29 32 42 31 34 44 34 24 32 126 25 28 149 32 31 126 37 34 114 35 35 61 39 47 37 41 53 49 48 51 50 50 52 52 57 68 63 71 85 89 99 113 92 102 117 74 83 98 77 86 101 69 78 93 60 67 83 39 45 59 18 36 36
0 0 0 0 0 0 0 0 0 57 63 74 55 58 67 51 58 70 34 38 50 21 23 34 18 20 30 17 19 28 27 30 41 22 26 35 19 28 29 74 32 35 127 25 22 132 18 13 135 37 37 53 29 35 22 25 33 25 28 37 26 29 39 26 29 39 28 31 40 82 83 93 124 122 131 95 92 97 61 58 59 30 30 38 34 38 47 47 51 62 45 50 60 49 54 65 71 76 88 88 96 107 83 90 102 71 76 87 70 73 83 60 66 77 54 60 71 49 54 65 36 40 50 32 35 45 20 22 29 28 31 40 31 34 44 65 27 34 155 27 27 139 35 32 124 35 33 83 40 46 39 43 55 33 38 49 42 45 56 41 44 52 60 63 70 90 100 112 100 111 124 100 110 124 88 97 112 79 88 102 63 70 84 59 66 81 41 50 62 0 0 0
0 0 0 0 0 0 0 0 0 0 0 0 69 71 79 79 87 101 63 70 84 37 42 53 31 35 47 30 34 45 35 40 51 23 26 35 20 23 32 45 39 50 110 31 32 130 18 13 143 36 35 77 39 45 35 39 49 33 36 45 31 35 44 32 35 44 33 36 45 68 72 81 112 113 123 111 112 121 91 92 100 40 42 53 29 33 43 31 35 45 29 33 42 32 36 45 62 66 77 84 88 101 73 75 84 66 72 83 55 60 70 37 41 52 31 34 44 36 40 50 33 37 46 32 35 45 21 23 31 28 31 41 43 42 52 113 32 36 155 30 29 129 35 33 100 32 34 49 38 48 39 44 56 27 31 43 35 40 52 36 41 53 48 52 63 68 77 91 61 67 79 60 61 66 67 68 72 61 60 64 55 53 57 56 59 72 0 0 0 0 0 0
0 0 0 0 0 0 0 0 0 0 0 0 85 85 97 79 81 89 62 63 72 37 42 53 39 43 56 38 43 55 36 41 52 22 25 34 20 23 32 38 40 51 91 33 36 129 21 17 139 34 32 79 38 44 36 42 51 32 36 46 26 29 38 25 28 37 26 29 38 40 44 53 48 52 63 34 37 47 35 38 48 32 35 46 38 42 53 37 41 51 36 40 50 45 49 60 73 77 89 83 85 96 61 58 61 42 43 48 32 35 44 25 27 36 23 25 34 31 34 44 33 37 48 34 37 48 22 25 33 30 33 43 76 51 60 153 30 31 145 33 31 119 32 31 61 31 37 41 46 58 62 69 82 39 44 56 43 50 63 46 53 67 37 43 55 46 50 61 50 49 54 52 47 47 57 51 49 58 51 49 58 55 57 51 68 68 0 0 0 0 0 0
0 0 0 0 0 0 0 0 0 0 0 0 0 0 0 51 45 45 41 40 44 23 26 37 25 27 38 50 54 65 67 70 81 31 33 41 20 23 32 30 34 45 66 31 38 124 25 22 138 30 27 83 38 43 37 42 52 34 38 48 40 43 54 43 43 52 40 40 46 43 47 58 45 51 61 42 47 57 49 54 65 49 54 66 39 43 53 35 38 48 36 40 49 45 48 57 56 57 63 48 47 52 42 43 46 39 41 47 33 36 44 30 33 43 34 38 49 37 42 53 40 44 55 41 45 56 25 28 37 33 37 47 98 53 61 158 29 28 134 33 31 92 29 32 30 30 40 35 39 51 42 47 59 34 39 51 36 41 54 33 38 51 35 41 54 42 48 62 40 45 57 44 47 56 53 50 52 58 51 47 59 56 59 0 0 0 0 0 0 0 0 0
0 0 0 0 0 0 0 0 0 0 0 0 0 0 0 0 0 0 30 32 40 20 22 32 18 20 30 76 77 89 134 134 145 77 78 89 22 25 35 28 32 43 62 29 36 128 27 24 135 26 23 113 53 57 57 62 73 39 44 55 52 56 69 67 70 80 71 74 82 60 66 79 72 80 91 67 74 86 63 68 81 52 57 69 39 43 54 41 44 55 42 45 56 42 46 55 44 44 49 43 43 46 38 42 48 38 41 47 38 42 51 41 45 56 49 53 66 47 52 64 43 49 60 39 43 54 24 27 36 30 33 43 104 40 45 145 32 31 126 32 30 69 30 35 27 30 41 29 33 44 32 36 47 38 43 55 45 51 64 46 53 66 45 52 66 46 53 67 43 50 63 44 46 54 52 48 47 57 49 45 57 46 46 0 0 0 0 0 0 0 0 0
0 0 0 0 0 0 0 0 0 0 0 0 0 0 0 0 0 0 10 21 31 18 21 31 17 19 29 29 31 42 49 51 61 39 42 51 17 20 29 20 24 34 39 23 31 110 28 28 133 27 24 133 42 44 58 51 62 31 36 47 32 36 48 46 51 64 52 58 68 36 50 48 45 69 56 45 68 56 41 59 54 32 39 46 31 34 46 37 40 51 38 41 52 37 41 51 33 36 46 32 36 45 32 36 44 34 36 42 35 38 48 33 36 47 35 38 49 42 46 57 35 39 50 27 31 42 18 20 29 24 24 33 111 29 31 133 33 31 89 24 26 26 21 29 23 26 37 25 28 38 25 28 39 29 33 44 36 42 53 38 44 56 37 43 56 37 43 56 35 41 52 32 36 48 39 39 45 53 47 43 0 0 0 0 0 0 0 0 0 0 0 0
0 0 0 0 0 0 0 0 0 0 0 0 0 0 0 0 0 0 0 0 0 16 16 29 22 24 36 24 26 37 23 26 36 21 24 34 21 23 32 20 22 32 20 23 32 64 24 28 127 29 26 129 30 30 39 28 36 19 21 30 21 23 33 25 28 38 25 31 38 26 53 34 34 74 39 38 85 43 40 89 45 28 53 36 21 24 33 26 28 38 27 30 40 28 32 43 28 31 42 27 30 40 26 29 38 24 27 36 33 35 45 79 80 91 79 81 93 71 73 87 38 40 51 20 22 31 18 20 29 78 22 27 138 33 31 113 31 30 48 20 24 15 18 26 21 24 34 23 25 36 23 26 36 22 25 34 21 24 33 22 25 35 24 27 38 25 29 41 27 31 43 22 26 38 22 25 37 25 25 38 0 0 0 0 0 0 0 0 0 0 0 0
0 0 0 0 0 0 0 0 0 0 0 0 0 0 0 0 0 0 0 0 0 0 0 0 52 57 72 65 72 86 63 70 85 50 56 70 47 48 55 41 43 51 45 50 63 60 58 70 113 47 49 135 36 35 78 56 66 60 64 77 52 57 70 42 46 58 27 31 40 21 33 30 32 68 37 50 115 53 47 107 51 29 56 36 29 33 41 42 47 58 45 50 62 51 56 69 50 56 69 47 51 64 47 52 64 45 50 62 40 45 56 72 76 87 67 72 85 56 60 73 47 52 64 48 52 65 69 42 51 130 31 32 131 32 30 79 33 39 28 32 42 24 27 37 25 28 38 24 27 38 25 27 38 18 21 30 14 16 25 25 28 39 35 41 54 38 45 58 39 46 59 31 36 49 10 21 31 0 0 0 0 0 0 0 0 0 0 0 0 0 0 0
0 0 0 0 0 0 0 0 0 0 0 0 0 0 0 0 0 0 0 0 0 0 0 0 0 0 0 85 94 108 75 83 97 61 69 83 53 57 66 44 48 57 54 60 74 80 86 100 103 73 81 137 43 42 112 75 85 86 89 104 60 65 77 43 47 59 32 37 46 27 34 38 32 68 38 45 105 49 39 88 43 22 36 31 30 35 44 48 53 65 67 73 86 94 101 114 84 92 105 58 65 77 55 61 74 56 61 74 38 44 55 48 54 66 63 68 80 59 63 72 59 66 79 83 78 91 139 43 47 144 30 28 109 30 30 50 39 49 42 47 59 45 50 62 47 54 67 52 59 71 86 89 101 56 58 70 27 30 41 54 59 74 64 70 86 64 71 87 62 69 84 67 73 87 0 0 0 0 0 0 0 0 0 0 0 0 0 0 0 0 0 0
0 0 0 0 0 0 0 0 0 0 0 0 0 0 0 0 0 0 0 0 0 0 0 0 0 0 0 0 0 0 65 73 83 64 72 85 56 63 77 43 49 62 49 56 70 56 63 77 64 59 72 119 41 42 104 50 57 49 54 66 30 33 44 28 32 43 30 34 45 29 33 41 31 61 38 36 84 41 37 85 42 22 38 31 30 34 43 46 52 63 70 75 87 91 95 103 75 79 88 44 49 60 44 49 61 47 52 65 34 38 49 38 42 53 53 52 59 55 55 60 55 61 74 91 70 82 143 38 39 131 28 26 85 36 42 48 52 62 95 95 104 110 109 121 65 69 82 57 64 78 74 81 95 41 45 58 26 30 41 58 64 77 62 70 85 65 71 86 65 74 86 0 0 0 0 0 0 0 0 0 0 0 0 0 0 0 0 0 0 0 0 0
0 0 0 0 0 0 0 0 0 0 0 0 0 0 0 0 0 0 0 0 0 0 0 0 0 0 0 0 0 0 0 0 51 46 52 64 39 44 56 34 39 50 37 41 53 36 41 52 37 41 53 84 35 40 94 38 44 59 64 77 64 70 83 73 76 91 64 67 81 31 40 43 30 66 36 33 79 38 35 83 40 24 44 32 33 38 48 44 49 60 56 58 66 53 51 55 58 56 61 67 68 77 68 71 82 40 44 56 36 40 51 41 43 52 58 57 61 58 60 67 68 59 70 124 45 49 139 27 25 117 56 60 82 81 93 65 70 81 86 85 93 107 104 112 60 62 72 47 53 67 53 60 75 39 45 58 23 25 33 43 44 51 45 48 57 53 56 59 0 0 0 0 0 0 0 0 0 0 0 0 0 0 0 0 0 0 0 0 0 0 0 0
0 0 0 0 0 0 0 0 0 0 0 0 0 0 0 0 0 0 0 0 0 0 0 0 0 0 0 0 0 0 0 0 0 28 28 28 21 25 34 17 19 29 20 22 32 23 25 36 25 28 38 35 30 40 43 31 41 49 54 68 65 71 85 88 94 108 83 89 102 31 41 44 31 72 37 33 79 38 29 69 35 22 39 32 41 46 58 47 52 66 41 45 57 43 48 59 76 78 90 133 132 144 142 142 152 56 59 72 39 43 55 43 48 59 53 59 70 55 59 71 109 42 48 141 29 27 124 42 43 106 94 105 101 110 124 86 94 107 42 47 59 38 43 54 38 43 55 46 53 66 50 57 71 50 58 71 25 29 39 34 37 46 35 42 53 0 0 0 0 0 0 0 0 0 0 0 0 0 0 0 0 0 0 0 0 0 0 0 0 0 0 0
0 0 0 0 0 0 0 0 0 0 0 0 0 0 0 0 0 0 0 0 0 0 0 0 0 0 0 0 0 0 0 0 0 0 0 0 0 0 0 12 12 22 16 19 28 24 27 38 27 30 41 36 40 52 34 38 51 25 28 40 26 29 42 37 41 53 47 52 64 26 35 38 31 75 37 30 73 35 21 42 28 21 29 34 38 43 56 39 44 57 31 35 47 44 49 61 49 54 67 91 95 107 122 126 139 68 73 86 53 59 70 43 49 61 42 48 60 63 42 52 123 33 35 114 35 35 84 42 49 60 66 78 68 76 89 65 73 86 41 47 60 45 51 66 46 51 66 49 55 69 48 54 68 45 51 64 23 27 35 33 33 39 31 31 31 0 0 0 0 0 0 0 0 0 0 0 0 0 0 0 0 0 0 0 0 0 0 0 0 0 0 0
0 0 0 0 0 0 0 0 0 0 0 0 0 0 0 0 0 0 0 0 0 0 0 0 0 0 0 0 0 0 0 0 0 0 0 0 0 0 0 0 0 0 18 24 36 26 29 41 27 32 44 27 31 43 24 27 38 22 24 35 21 23 34 21 23 34 24 27 37 23 37 34 33 82 38 28 68 34 14 21 23 15 17 26 23 25 35 23 25 35 21 23 34 37 42 55 43 49 61 54 60 73 70 77 92 66 73 87 85 94 108 73 80 95 47 53 67 44 49 62 57 50 62 53 47 57 38 41 52 39 44 55 64 72 85 68 77 90 49 56 69 45 51 66 41 46 60 40 45 59 35 40 53 29 34 47 18 20 30 19 19 39 0 0 0 0 0 0 0 0 0 0 0 0 0 0 0 0 0 0 0 0 0 0 0 0 0 0 0 0 0 0
0 0 0 0 0 0 0 0 0 0 0 0 0 0 0 0 0 0 0 0 0 0 0 0 0 0 0 0 0 0 0 0 0 0 0 0 0 0 0 0 0 0 0 0 0 23 23 46 39 44 57 35 38 51 34 38 50 37 41 54 27 31 41 22 26 36 17 19 28 17 28 26 30 75 35 28 68 34 16 25 25 18 20 29 31 33 41 31 35 45 30 34 45 43 48 60 45 51 64 48 54 67 54 60 74 60 66 81 75 82 97 67 75 89 47 53 66 37 43 54 37 42 53 37 43 54 36 41 53 34 38 49 46 52 64 47 53 66 40 45 57 35 40 52 30 33 46 27 32 44 25 28 40 20 25 37 0 0 0 0 0 0 0 0 0 0 0 0 0 0 0 0 0 0 0 0 0 0 0 0 0 0 0 0 0 0 0 0 0 0 0 0
0 0 0 0 0 0 0 0 0 0 0 0 0 0 0 0 0 0 0 0 0 0 0 0 0 0 0 0 0 0 0 0 0 0 0 0 0 0 0 0 0 0 0 0 0 0 0 0 0 0 0 32 39 52 33 37 47 26 30 40 19 22 31 20 22 33 18 21 31 21 31 31 25 49 34 22 37 33 16 19 27 22 25 33 32 34 40 29 33 42 28 32 42 29 33 43 30 34 45 32 36 46 25 28 39 25 29 40 26 29 41 26 29 40 27 31 43 35 40 52 40 45 58 37 43 55 48 55 67 56 64 77 62 70 84 63 70 84 65 72 86 60 66 79 44 51 63 41 41 55 0 0 36 0 0 0 0 0 0 0 0 0 0 0 0 0 0 0 0 0 0 0 0 0 0 0 0 0 0 0 0 0 0 0 0 0 0 0 0 0 0 0
0 0 0 0 0 0 0 0 0 0 0 0 0 0 0 0 0 0 0 0 0 0 0 0 0 0 0 0 0 0 0 0 0 0 0 0 0 0 0 0 0 0 0 0 0 0 0 0 0 0 0 0 0 0 0 0 0 21 24 31 20 23 33 21 24 35 24 27 38 28 32 41 29 33 42 28 32 42 21 23 33 25 29 39 30 33 44 22 25 36 22 26 37 20 22 33 22 25 36 25 28 38 21 24 35 20 24 34 20 23 33 23 26 36 24 27 37 32 36 47 39 44 57 46 52 65 54 62 75 59 67 80 77 85 100 89 98 111 87 99 110 95 106 116 0 0 0 0 0 0 0 0 0 0 0 0 0 0 0 0 0 0 0 0 0 0 0 0 0 0 0 0 0 0 0 0 0 0 0 0 0 0 0 0 0 0 0 0 0 0 0 0
0 0 0 0 0 0 0 0 0 0 0 0 0 0 0 0 0 0 0 0 0 0 0 0 0 0 0 0 0 0 0 0 0 0 0 0 0 0 0 0 0 0 0 0 0 0 0 0 0 0 0 0 0 0 0 0 0 0 0 0 19 19 32 18 22 33 22 25 36 21 24 34 21 24 34 23 26 36 21 24 35 29 33 45 31 35 48 21 24 35 21 23 34 18 20 30 18 19 29 17 19 28 17 18 28 15 17 26 15 17 26 17 19 29 16 18 27 15 18 26 17 19 28 23 26 36 26 31 41 29 34 46 43 49 62 63 85 85 0 0 0 0 0 0 0 0 0 0 0 0 0 0 0 0 0 0 0 0 0 0 0 0 0 0 0 0 0 0 0 0 0 0 0 0 0 0 0 0 0 0 0 0 0 0 0 0 0 0 0 0 0 0
0 0 0 0 0 0 0 0 0 0 0 0 0 0 0 0 0 0 0 0 0 0 0 0 0 0 0 0 0 0 0 0 0 0 0 0 0 0 0 0 0 0 0 0 0 0 0 0 0 0 0 0 0 0 0 0 0 0 0 0 0 0 0 0 0 0 26 26 37 23 26 36 23 26 38 22 25 37 22 26 35 23 27 35 23 26 36 20 22 34 22 25 35 20 24 33 19 21 32 20 22 33 18 20 29 14 18 27 14 17 26 17 18 28 16 17 26 13 15 22 12 15 23 15 17 26 13 17 27 0 25 25 0 0 0 0 0 0 0 0 0 0 0 0 0 0 0 0 0 0 0 0 0 0 0 0 0 0 0 0 0 0 0 0 0 0 0 0 0 0 0 0 0 0 0 0 0 0 0 0 0 0 0 0 0 0 0 0 0 0 0 0
0 0 0 0 0 0 0 0 0 0 0 0 0 0 0 0 0 0 0 0 0 0 0 0 0 0 0 0 0 0 0 0 0 0 0 0 0 0 0 0 0 0 0 0 0 0 0 0 0 0 0 0 0 0 0 0 0 0 0 0 0 0 0 0 0 0 0 0 0 0 0 0 0 0 0 0 0 0 0 0 0 0 0 0 0 0 0 0 0 0 0 0 0 0 0 51 0 0 0 0 0 0 0 0 0 0 0 0 0 0 0 0 0 42 0 0 36 0 0 0 0 0 0 0 0 0 0 0 0 0 0 0 0 0 0 0 0 0 0 0 0 0 0 0 0 0 0 0 0 0 0 0 0 0 0 0 0 0 0 0 0 0 0 0 0 0 0 0 0 0 0 0 0 0 0 0 0 0 0 0 0 0 0 0 0 0 0 0 0 0 0 0
0 0 0 0 0 0 0 0 0 0 0 0 0 0 0 0 0 0 0 0 0 0 0 0 0 0 0 0 0 0 0 0 0 0 0 0 0 0 0 0 0 0 0 0 0 0 0 0 0 0 0 0 0 0 0 0 0 0 0 0 0 0 0 0 0 0 0 0 0 0 0 0 0 0 0 0 0 0 0 0 0 0 0 0 0 0 0 0 0 0 0 0 0 0 0 0 0 0 0 0 0 0 0 0 0 0 0 0 0 0 0 0 0 0 0 0 0 0 0 0 0 0 0 0 0 0 0 0 0 0 0 0 0 0 0 0 0 0 0 0 0 0 0 0 0 0 0 0 0 0 0 0 0 0 0 0 0 0 0 0 0 0 0 0 0 0 0 0 0 0 0 0 0 0 0 0 0 0 0 0 0 0 0 0 0 0 0 0 0 0 0 0
