P3
# Rough draft icon for OpenTESArena.
64 64
255
177 75 60 154 60 48 161 77 66 152 79 67 81 48 32 108 103 87 52 44 37 134 123 123 232 204 204 189 138 131 169 94 76 190 90 61 199 87 53 205 87 53 209 90 61 205 90 55 204 90 53 206 91 55 208 96 64 213 105 75 202 99 72 186 88 64 175 86 64 137 58 39 110 37 16 109 41 22 165 94 68 223 134 94 219 131 74 220 132 61 228 139 58 235 145 58 239 147 66 240 148 73 239 150 77 242 155 80 245 161 79 245 166 80 244 169 89 241 173 86 242 175 81 242 179 82 242 181 93 234 174 101 226 168 111 244 190 143 241 192 146 244 203 152 253 216 161 255 217 163 255 210 158 252 204 151 252 201 144 246 192 130 240 183 116 245 180 103 247 176 90 255 177 82 255 181 79 255 181 73 255 183 82 255 187 88 255 187 87 255 189 86
176 74 61 163 68 55 165 74 62 173 91 79 86 47 32 102 93 81 55 46 41 101 89 90 220 196 197 211 165 160 167 95 80 187 90 65 197 87 55 203 88 54 206 90 60 206 91 58 205 91 54 205 93 54 206 97 62 211 104 74 196 94 66 179 82 59 172 84 62 133 57 37 106 35 17 103 38 21 152 82 59 215 129 93 223 136 83 221 133 66 226 138 59 233 143 59 238 147 68 240 148 75 240 150 80 244 155 82 248 163 82 249 169 83 245 170 91 242 172 87 244 174 81 242 175 81 240 179 93 228 173 105 212 163 113 225 182 144 212 174 133 208 173 126 211 175 123 220 177 127 247 202 153 255 216 167 246 203 154 232 187 136 233 184 127 244 187 120 244 181 102 252 180 89 255 184 81 255 182 73 255 182 80 255 184 86 255 186 86 255 188 84
172 75 62 173 79 64 172 79 65 182 95 82 83 37 24 97 86 75 82 73 69 77 67 70 195 176 180 218 179 175 162 97 82 180 90 66 191 87 57 201 88 55 204 89 61 208 93 60 210 97 59 204 94 55 204 95 60 205 101 69 186 86 60 168 75 52 163 80 59 127 52 32 98 31 15 93 32 17 134 68 47 204 123 88 227 141 95 225 139 76 225 138 62 228 138 58 234 143 66 239 145 76 239 148 79 242 154 80 247 161 80 249 167 82 248 169 90 248 169 82 249 172 75 246 173 75 242 177 91 215 160 96 153 111 66 143 108 73 138 106 67 161 126 77 181 140 84 161 120 68 141 101 54 163 125 83 231 194 154 253 218 177 238 199 157 237 191 137 240 187 119 248 186 99 255 186 84 255 183 72 255 181 77 255 181 84 255 184 84 255 186 82
165 77 65 160 70 57 167 75 62 180 91 76 102 54 40 79 65 55 96 86 84 65 57 61 179 163 167 233 201 198 177 118 106 170 88 65 189 89 59 204 94 62 204 89 60 205 91 58 209 96 55 204 94 55 201 91 57 202 97 67 188 89 64 166 75 53 153 73 53 131 60 43 96 33 19 87 30 15 119 57 37 198 120 90 223 139 95 216 132 70 232 148 74 227 140 62 233 141 68 235 143 75 238 146 80 241 153 80 246 159 77 247 162 77 253 168 88 252 162 73 255 167 65 253 169 65 252 179 89 213 157 90 124 83 38 158 125 93 196 159 119 211 166 110 230 177 110 216 167 110 161 119 70 96 58 17 120 86 53 205 175 145 245 213 182 231 195 153 237 191 133 248 194 116 247 182 86 255 184 76 255 183 81 255 182 84 255 186 86 255 188 84
148 73 61 161 81 68 163 79 64 174 91 76 115 67 54 61 43 37 101 90 90 62 55 62 148 138 144 240 211 213 199 146 137 169 93 70 190 94 64 196 88 58 202 88 59 204 89 55 211 97 58 208 96 58 202 94 58 196 93 61 176 80 54 159 70 48 146 68 50 126 58 43 93 32 21 81 29 16 110 51 33 182 108 80 217 138 97 215 134 75 228 146 74 231 146 70 238 147 75 235 144 77 238 145 80 240 152 80 246 160 79 249 163 79 252 163 83 255 161 70 255 163 58 255 165 55 255 179 86 211 153 88 138 98 57 210 179 146 241 203 161 225 174 111 244 179 102 242 187 118 238 191 136 152 115 69 65 31 1 105 76 55 199 173 154 246 217 188 231 192 145 232 183 116 246 189 99 247 181 77 255 184 82 255 182 84 255 184 84 255 186 82
108 44 35 134 67 55 146 72 57 169 95 80 150 103 91 66 45 38 106 95 97 62 58 66 102 94 103 231 206 211 215 168 159 161 89 69 182 88 61 189 82 53 205 93 62 201 87 52 205 94 52 208 96 58 201 94 57 192 90 59 168 73 47 152 65 44 138 62 45 119 53 38 87 32 19 75 26 16 99 44 29 163 90 68 211 134 97 215 134 81 220 139 70 230 144 72 238 147 79 238 146 80 238 146 80 241 150 80 246 158 77 248 162 79 246 158 83 254 160 74 255 159 58 255 161 54 252 174 83 188 134 73 126 91 57 160 133 106 235 199 158 232 175 110 255 186 101 242 181 102 240 189 124 188 145 94 95 61 30 73 46 30 133 111 99 223 199 181 232 202 166 228 188 128 244 191 110 238 179 82 252 180 83 255 177 80 255 181 81 255 183 81
70 22 10 93 36 23 106 40 28 136 70 55 157 112 101 76 54 50 95 82 86 77 73 84 72 65 77 213 192 198 224 180 173 162 94 74 168 77 51 183 77 48 205 93 64 199 86 51 199 88 46 202 93 54 196 91 54 188 88 57 165 70 45 145 61 40 131 59 41 112 51 36 84 31 21 73 26 17 90 38 26 147 75 55 202 126 91 212 133 81 212 131 65 220 137 65 232 143 74 237 145 80 237 145 82 240 148 79 244 154 74 240 158 76 235 157 89 245 159 80 249 155 60 250 159 58 233 160 76 143 97 43 118 94 66 132 115 96 255 225 191 239 184 120 244 170 81 248 182 93 245 187 111 210 162 108 123 89 55 68 44 29 81 62 57 157 137 127 225 198 170 232 196 145 233 188 113 235 180 90 249 180 84 253 175 76 254 180 80 255 183 80
60 19 9 70 23 9 77 22 7 96 37 22 133 91 80 81 55 52 75 61 66 101 97 110 55 51 64 188 169 177 245 204 199 183 116 98 161 73 46 179 76 47 192 82 52 196 84 48 203 93 50 198 90 51 190 86 48 182 82 51 157 66 38 143 59 39 127 55 38 111 50 37 86 33 24 72 29 19 86 35 24 129 57 38 190 116 81 209 132 81 211 131 66 220 137 65 226 139 70 232 140 76 238 146 82 242 151 81 240 151 70 232 151 72 227 158 97 235 159 87 240 152 64 242 158 62 201 136 58 131 94 47 130 116 97 89 80 68 227 204 174 231 181 120 241 170 82 248 177 84 242 181 96 215 165 103 147 111 75 75 51 37 45 29 26 106 88 84 194 169 147 226 194 148 227 184 116 234 182 96 253 186 93 255 183 86 255 183 83 255 184 81
45 22 14 53 23 15 61 24 16 67 24 17 96 68 61 87 72 67 55 48 51 112 111 119 46 41 51 140 127 132 247 213 209 197 139 126 155 74 51 179 81 51 187 77 43 194 82 41 205 94 50 203 91 51 192 86 51 174 74 45 152 61 38 137 55 40 125 54 44 105 47 41 80 32 29 67 28 28 81 31 25 120 47 23 173 96 61 205 128 86 210 129 77 215 131 75 220 132 75 231 141 81 233 145 80 234 146 74 237 151 68 228 147 66 221 151 88 218 147 82 226 152 79 238 168 98 179 124 67 139 104 66 146 129 108 58 45 29 197 177 152 232 197 157 217 168 112 234 180 111 228 176 112 212 167 119 141 108 77 74 47 33 47 26 19 82 61 54 168 143 125 202 169 133 211 170 120 233 188 124 248 186 108 255 183 93 255 181 83 255 179 73
33 23 19 37 23 21 43 24 23 41 19 21 57 44 43 79 75 73 43 41 43 113 113 116 54 51 54 104 95 94 233 206 204 219 170 160 161 90 69 182 90 60 195 88 51 199 86 44 201 87 44 199 87 48 197 88 54 168 68 41 152 60 43 131 51 40 120 52 48 101 45 46 74 29 33 62 26 35 74 26 23 104 32 4 153 77 44 198 117 84 206 122 86 212 126 84 221 130 84 220 132 75 220 134 70 226 145 72 227 147 67 215 140 59 218 146 83 215 150 94 198 140 90 174 125 81 130 90 57 129 98 70 141 119 95 82 62 43 143 126 106 129 113 96 118 97 79 208 175 140 228 190 153 179 146 119 103 73 53 81 54 40 59 36 25 62 38 24 117 89 70 176 144 117 181 143 111 224 183 141 235 179 116 249 175 93 255 179 82 255 175 67
36 25 23 37 24 21 38 19 19 37 17 17 37 25 23 67 62 60 45 44 44 102 101 103 81 79 81 84 74 74 223 197 194 242 198 188 170 106 86 175 90 61 195 95 60 204 96 55 198 87 45 191 80 44 188 82 51 167 67 40 144 54 36 124 45 33 115 48 43 98 44 43 74 30 31 64 29 35 68 26 24 84 23 1 134 65 38 179 102 72 199 113 79 215 123 80 220 127 77 215 125 68 215 130 68 213 138 70 211 140 70 210 148 82 195 144 95 167 122 83 123 82 48 75 44 16 72 50 25 89 73 57 93 83 70 101 94 83 95 89 81 61 57 50 58 53 43 88 66 43 147 122 93 190 166 145 134 113 99 67 47 36 59 38 30 70 47 37 67 41 23 160 127 101 177 139 105 206 162 120 224 165 103 248 176 93 255 180 86 255 180 73
33 22 19 35 21 18 37 18 18 40 19 21 19 8 6 67 65 60 57 54 53 73 72 75 112 111 113 58 47 50 190 168 166 242 203 192 173 115 97 167 89 66 188 97 68 202 101 65 199 91 54 189 81 47 182 79 50 155 61 35 129 41 22 116 39 25 109 46 37 94 44 37 72 31 29 59 28 28 67 32 29 84 33 18 104 43 23 146 74 47 191 106 70 212 117 70 217 120 67 225 132 76 213 132 75 203 137 79 204 152 93 184 141 94 133 105 77 83 61 40 72 53 36 82 69 57 88 83 74 93 93 88 110 113 115 119 125 126 123 130 131 122 130 131 88 94 93 83 73 60 69 55 38 90 77 65 146 136 128 124 111 106 60 46 39 43 22 12 70 43 26 127 94 67 159 119 83 197 151 108 225 166 104 241 169 90 255 181 87 255 181 76
29 18 15 33 18 17 37 19 18 40 23 23 19 8 6 62 58 53 75 73 72 48 48 48 127 126 128 54 48 50 152 133 132 239 205 198 192 143 129 152 86 66 169 90 66 191 98 70 196 94 61 187 86 58 177 82 54 146 58 33 119 36 18 108 37 23 104 46 33 90 43 35 67 30 25 55 26 21 59 29 25 67 31 24 77 29 15 115 48 23 175 90 54 212 117 69 218 119 65 215 124 68 205 130 79 201 147 101 169 133 90 103 81 50 64 55 44 66 64 60 91 91 88 110 113 112 105 113 115 104 115 119 116 128 136 113 127 136 131 147 154 130 147 154 129 143 148 131 132 131 134 133 130 87 88 86 74 74 73 116 112 115 137 128 127 72 55 48 77 53 37 122 87 59 162 120 84 180 131 88 223 161 101 239 166 90 255 177 88 255 180 79
30 18 16 32 17 16 36 18 17 36 21 19 28 18 15 43 38 33 93 90 88 43 43 43 123 125 124 70 68 68 109 96 94 235 210 203 209 169 160 118 64 50 129 65 47 168 90 67 183 94 65 183 95 68 175 89 65 141 59 40 117 41 25 104 39 24 101 46 35 88 44 35 66 30 22 54 24 18 46 22 17 48 24 23 77 39 32 95 35 15 139 59 24 195 103 57 210 116 64 196 111 61 198 133 89 160 120 84 79 59 33 48 46 29 80 86 82 110 118 120 122 128 130 115 124 128 105 117 123 88 101 106 80 94 102 106 122 129 116 131 139 134 151 159 144 159 167 152 163 170 159 168 176 158 167 175 111 120 128 58 60 67 113 110 112 155 144 138 101 80 64 87 53 28 147 104 68 188 137 96 216 154 98 238 166 96 253 174 90 255 179 80
22 9 7 30 17 15 30 16 15 26 12 11 37 28 23 32 29 22 88 86 82 45 45 45 111 113 112 86 87 87 66 60 59 212 195 192 227 197 192 102 61 54 80 30 19 128 66 48 158 83 60 168 95 74 154 82 62 127 57 39 113 48 35 99 40 30 98 47 38 79 38 29 57 24 14 54 24 16 47 26 21 44 25 28 68 36 32 90 37 21 113 41 10 160 75 35 194 109 62 197 122 80 170 116 82 89 60 37 26 21 9 50 55 51 103 113 116 124 132 136 126 134 137 99 110 112 87 97 99 74 82 84 62 67 70 76 83 87 111 120 124 137 146 147 155 165 169 161 176 187 168 186 201 166 181 196 161 175 188 115 125 131 53 57 60 108 101 95 147 128 115 105 75 51 130 89 58 162 115 75 197 138 87 232 160 95 248 170 89 255 173 79
29 14 12 30 16 15 24 11 9 24 11 10 30 21 16 21 17 9 66 66 60 45 46 44 91 95 95 118 120 123 44 41 43 174 166 165 232 212 212 122 94 90 53 18 14 79 32 22 99 43 26 116 59 44 117 60 45 109 53 40 108 54 44 97 46 38 97 51 44 77 38 31 54 23 14 51 22 12 46 25 19 44 28 29 51 23 19 79 32 19 104 44 21 130 57 28 169 97 65 154 94 65 80 38 17 36 18 8 59 62 59 89 103 104 110 119 122 120 128 129 124 129 129 96 98 98 73 75 72 57 59 54 46 46 43 54 55 52 101 102 99 137 139 137 170 176 176 181 194 206 191 210 228 182 201 217 174 190 204 147 160 168 86 95 97 45 43 39 117 103 90 128 101 81 103 66 40 168 124 90 195 137 90 221 151 88 245 166 88 255 172 82
37 19 18 33 18 16 22 9 7 26 15 12 33 24 19 23 18 11 53 51 46 55 55 53 54 59 59 137 140 143 41 45 47 132 130 132 223 215 217 139 125 125 44 22 24 52 23 18 55 18 7 67 26 17 75 33 24 81 39 32 83 40 33 84 43 38 88 48 44 73 37 31 57 24 19 52 23 16 44 22 16 43 23 22 48 22 17 69 29 19 90 40 26 106 50 32 127 73 55 97 54 40 44 16 7 52 44 40 94 104 108 110 125 131 117 126 128 108 112 112 101 104 103 75 76 72 51 48 43 30 26 19 24 21 12 48 46 40 99 98 95 144 144 140 176 179 180 191 201 213 203 219 235 194 211 225 181 197 209 158 172 179 126 133 136 59 59 55 74 62 53 139 118 102 116 84 62 150 111 84 188 131 90 215 144 84 234 155 83 249 166 79
35 18 18 36 21 18 28 16 14 33 23 21 36 28 22 26 19 14 50 47 41 74 74 72 35 40 39 128 136 136 57 64 67 99 103 106 219 217 221 166 159 165 51 39 45 44 28 25 44 23 17 44 22 16 50 24 19 57 28 24 60 25 24 64 29 25 70 35 31 62 28 25 57 24 19 57 26 22 45 17 12 40 15 9 59 32 24 66 32 24 75 37 29 94 54 45 87 50 45 52 24 22 51 36 36 82 81 84 101 112 118 118 132 139 112 123 126 77 84 86 64 68 67 44 45 41 30 30 24 21 18 12 21 18 12 39 39 33 84 86 83 133 139 138 174 180 183 189 196 208 201 211 225 195 206 218 179 190 199 154 167 173 126 134 136 103 104 101 66 58 50 106 90 76 125 99 83 122 89 68 183 131 95 211 140 86 227 150 80 240 157 70
32 17 15 38 25 23 33 22 19 31 22 18 32 23 17 18 12 7 40 37 31 80 81 77 32 39 36 105 116 116 87 98 101 60 68 72 202 205 212 195 197 204 65 61 69 25 21 23 32 26 23 32 22 19 32 17 16 37 16 17 43 17 18 46 17 16 54 22 19 52 18 17 53 21 19 57 24 21 45 15 8 43 16 4 59 29 18 62 31 25 69 39 38 75 46 48 54 31 38 35 19 29 51 44 53 87 89 98 109 118 127 118 130 137 88 99 106 46 58 64 37 45 47 22 25 24 19 22 19 25 24 21 23 24 22 23 26 26 51 58 60 106 118 120 154 167 174 175 181 191 179 183 195 169 177 187 161 169 176 145 155 158 119 128 128 123 125 122 96 93 84 69 57 47 90 70 58 110 81 66 169 119 84 210 143 88 232 157 88 240 157 73
31 14 12 40 24 23 39 26 24 32 19 17 36 24 21 21 10 8 32 23 21 82 75 73 37 36 33 86 89 89 124 132 131 35 43 44 166 172 174 215 213 218 89 82 90 19 15 19 33 31 29 30 25 24 23 14 12 19 6 6 24 4 4 35 14 14 44 21 19 43 16 16 41 15 15 43 16 15 40 12 7 50 22 8 54 26 15 53 28 21 61 39 38 52 35 38 38 26 33 43 39 47 65 65 73 99 105 111 112 120 126 93 103 108 62 75 79 24 36 38 18 28 28 10 17 15 8 12 10 8 10 8 4 7 6 8 12 14 28 35 38 73 82 87 116 126 130 147 153 158 145 150 154 133 143 146 131 141 143 125 132 131 116 122 118 112 116 109 109 105 96 69 57 46 77 60 45 134 111 93 152 110 77 208 145 96 238 166 102 245 160 82
29 11 12 44 24 26 51 29 31 47 25 28 39 23 23 45 29 30 37 17 18 83 62 64 61 43 45 68 62 59 147 150 145 47 55 48 127 130 126 227 221 219 137 120 123 33 18 18 35 28 25 29 23 19 25 17 15 25 15 12 22 11 10 30 17 17 35 21 19 31 16 16 23 8 8 25 9 9 33 14 9 43 17 4 43 22 9 41 25 16 51 38 32 40 35 32 33 32 32 41 44 44 64 67 67 98 104 103 106 111 110 82 89 86 44 53 46 23 32 25 12 19 14 8 15 10 12 18 14 19 24 21 19 22 22 18 22 23 18 19 23 36 37 39 62 65 68 70 79 77 66 77 74 70 82 79 66 77 74 59 67 62 65 69 62 76 76 67 99 94 80 72 59 40 33 16 0 73 51 28 141 108 79 191 141 102 224 157 101 248 165 91
31 15 15 54 35 36 54 30 35 43 18 22 37 18 19 62 46 46 50 26 29 69 44 47 76 55 57 52 41 39 151 152 146 65 73 65 95 99 93 219 213 211 184 167 167 58 41 43 24 18 15 18 12 9 24 16 14 30 21 18 29 21 17 26 16 14 28 16 16 26 14 14 24 11 11 28 12 12 37 18 15 47 24 14 48 26 18 59 41 33 50 38 33 28 24 21 24 24 23 72 74 74 112 117 118 126 131 130 124 129 126 93 98 94 95 102 94 101 105 98 97 99 94 83 87 81 102 104 99 126 128 126 127 127 128 116 116 117 95 95 96 80 80 82 80 79 81 68 74 72 65 74 70 67 74 70 48 55 53 30 37 32 32 36 30 44 43 35 55 47 36 43 31 15 46 29 10 77 59 36 158 127 99 186 138 101 211 146 94 246 166 94
24 8 8 45 26 29 44 24 25 38 16 18 35 17 17 43 25 26 43 19 22 65 39 43 91 70 72 41 30 29 126 127 122 93 99 91 73 77 70 203 201 196 210 195 195 72 58 57 24 17 14 30 24 21 26 18 16 22 12 10 26 17 15 25 14 12 25 12 11 25 11 11 25 12 12 30 15 15 36 15 14 44 18 12 55 31 26 45 26 23 31 19 17 72 67 66 106 106 106 122 124 124 115 119 119 72 77 75 44 51 46 47 52 45 36 38 30 18 19 11 21 21 15 25 26 21 22 23 17 24 24 21 29 29 28 32 30 29 28 26 26 26 24 26 30 28 29 33 35 35 39 43 40 46 50 48 36 40 39 33 37 35 43 45 41 72 69 65 91 83 76 122 109 98 130 116 101 128 109 91 106 79 53 181 138 101 216 154 102 234 157 87
19 4 4 28 11 12 31 14 15 32 14 15 33 17 17 43 25 26 44 19 22 50 22 25 102 79 81 36 22 22 103 103 98 126 132 125 65 70 64 175 173 168 230 215 215 103 90 89 16 10 7 36 31 28 30 22 18 21 11 9 35 25 23 29 18 16 25 12 11 26 12 12 29 15 15 33 18 18 37 16 16 41 17 15 46 22 19 41 22 22 41 29 30 79 72 74 69 67 70 22 22 23 12 16 14 14 17 12 3 7 1 16 17 10 16 14 4 8 3 0 11 8 0 10 6 0 4 0 0 9 4 0 14 9 6 11 7 3 9 3 1 8 2 0 9 3 3 10 6 6 10 6 4 10 9 9 4 4 4 6 4 6 24 22 22 16 14 11 45 38 35 48 38 30 40 26 16 36 18 4 44 17 0 184 143 109 226 169 117 220 147 77
24 10 10 22 7 7 32 15 15 32 16 16 33 18 18 40 23 24 67 40 44 45 16 19 90 65 67 54 38 39 72 68 65 141 148 140 64 70 62 148 147 143 224 216 213 138 128 127 26 21 17 25 21 16 26 18 15 26 17 15 31 22 19 31 21 19 30 17 16 28 14 14 32 18 18 36 21 21 35 15 16 39 12 16 41 18 21 47 26 28 45 30 32 14 4 8 6 2 3 12 9 9 21 19 17 29 29 23 24 25 16 24 21 9 22 11 0 24 10 0 30 16 6 22 8 1 19 8 0 21 8 0 15 3 0 21 8 4 23 12 8 22 12 8 19 9 7 24 11 10 18 7 4 22 11 11 19 11 11 15 9 9 16 11 12 12 9 8 23 16 15 19 10 7 26 15 9 33 21 10 54 32 10 190 153 118 227 173 122 217 145 76
31 17 17 31 17 17 29 14 14 26 12 12 35 21 21 43 25 26 68 41 45 50 18 24 80 52 57 88 72 73 45 41 37 125 130 124 65 72 64 116 118 112 212 208 204 170 165 161 37 31 28 26 22 18 23 15 12 29 18 16 33 24 22 29 17 16 28 15 15 28 14 14 32 18 18 33 18 18 32 12 14 44 18 21 54 31 33 57 36 38 62 45 48 35 22 24 22 12 14 31 23 22 31 22 18 21 11 3 10 1 0 12 0 0 15 0 0 33 8 0 36 11 0 22 0 0 23 1 0 23 2 0 17 0 0 21 2 0 25 7 0 29 11 3 29 10 4 22 1 0 32 11 8 31 14 10 24 11 9 18 8 9 10 4 4 26 19 21 31 24 24 12 7 3 31 23 17 31 22 12 50 29 8 190 154 119 227 174 122 217 147 79
36 23 22 37 24 24 24 10 10 23 9 9 28 15 15 38 21 21 57 30 33 51 18 24 77 48 53 105 86 87 30 24 21 123 129 123 89 101 91 80 86 77 196 194 190 194 190 187 58 52 48 31 25 22 30 22 19 32 22 19 33 24 22 29 17 15 26 14 14 26 12 12 30 17 17 33 18 18 32 14 15 50 25 28 66 44 46 53 32 36 50 32 35 41 24 26 23 8 7 22 4 3 17 0 0 25 4 0 50 29 14 70 44 28 102 66 50 103 66 47 96 61 44 101 66 47 113 81 64 110 79 62 106 77 62 67 39 24 44 17 1 29 3 0 25 1 0 38 10 1 33 4 0 35 11 6 23 4 1 14 1 0 11 1 0 10 3 2 14 7 6 10 3 0 41 36 31 31 25 18 44 23 3 186 150 112 228 176 122 219 150 80
40 29 28 38 26 25 22 10 9 21 9 8 26 12 11 30 12 12 52 24 29 52 18 25 60 29 33 105 83 84 33 26 24 108 113 106 112 124 115 58 64 57 174 177 172 212 210 205 99 94 90 25 19 16 31 23 21 35 25 23 25 16 14 30 19 17 29 16 15 25 11 11 31 18 18 36 21 21 38 21 22 46 26 28 46 24 26 43 23 25 57 37 38 54 33 35 28 4 2 26 2 0 66 37 28 96 64 47 131 94 76 192 152 131 206 158 134 191 144 120 180 133 111 196 151 129 218 174 152 220 180 158 226 189 167 174 137 117 133 99 79 89 54 35 41 8 0 81 45 30 82 47 36 93 62 53 52 29 22 39 23 17 46 35 31 59 52 48 50 46 41 62 59 54 57 54 50 65 61 54 65 45 22 172 134 94 218 163 108 220 150 79
35 25 23 36 25 23 19 10 8 21 9 8 24 11 10 30 12 12 48 19 25 58 23 30 47 15 21 98 74 77 45 37 35 76 80 73 127 138 129 51 61 52 150 155 148 225 224 219 138 132 129 23 17 14 19 11 9 32 23 21 29 19 17 31 19 18 28 15 15 28 14 14 33 21 21 38 23 23 43 25 25 51 31 31 40 21 22 40 22 21 50 28 26 39 16 14 28 0 0 83 48 40 189 150 136 217 168 152 182 131 111 204 151 126 219 160 133 201 141 113 179 122 94 194 137 111 223 169 141 194 144 117 147 102 74 132 89 61 131 90 62 140 102 73 105 65 39 103 61 40 158 118 102 172 136 124 102 75 64 90 69 61 99 86 79 104 97 91 91 88 82 96 95 89 96 97 90 106 105 96 93 74 48 168 130 86 212 158 98 227 154 80
23 14 11 28 18 16 21 11 9 21 14 10 19 9 8 33 16 16 46 17 22 68 32 39 52 15 22 89 65 68 59 51 48 53 58 52 141 154 145 62 75 66 116 124 116 221 220 216 173 167 165 43 37 33 14 6 2 30 21 18 30 21 18 29 17 16 29 16 16 33 19 19 39 25 25 41 25 26 37 19 19 36 17 16 48 31 29 43 23 19 37 15 11 46 18 15 86 54 46 118 77 67 123 75 59 130 74 55 165 104 81 198 131 109 216 146 118 211 144 112 166 98 68 131 68 38 125 64 32 93 36 4 81 28 0 80 28 0 113 64 33 159 115 83 155 111 83 125 80 55 165 120 99 172 133 117 130 99 84 93 69 58 95 80 70 93 86 77 93 89 82 76 76 68 103 104 96 110 110 99 126 109 80 192 154 106 225 168 108 232 158 81
14 3 1 22 10 9 23 14 11 22 12 10 25 12 11 46 29 30 48 22 26 70 36 43 46 12 17 75 51 53 96 86 83 28 30 22 131 138 131 88 97 89 98 105 98 210 211 205 201 195 190 68 62 59 18 10 8 31 21 19 29 18 16 25 15 14 30 16 16 37 23 23 43 30 29 41 28 25 38 22 21 40 23 21 41 25 21 43 24 21 48 26 21 57 25 19 113 73 66 119 68 57 102 39 25 124 55 39 123 51 32 102 29 6 132 61 31 237 166 132 226 157 124 148 81 50 133 70 37 139 80 46 179 123 89 126 72 38 132 81 47 167 118 84 197 147 117 173 123 94 147 97 73 143 103 80 145 115 95 88 66 51 103 89 79 116 111 99 73 72 62 75 76 66 96 98 89 84 86 74 111 93 62 180 138 93 216 158 101 226 151 79
23 10 9 21 8 8 25 11 11 23 8 8 22 4 7 33 17 19 47 29 30 40 19 19 36 15 11 70 52 48 122 109 103 31 24 17 117 113 109 129 130 125 76 77 74 187 189 181 223 220 209 94 89 82 22 14 10 33 21 21 37 22 25 28 12 17 32 14 17 37 21 21 38 25 23 37 25 17 41 28 23 48 26 29 38 19 17 46 29 22 64 40 31 50 14 4 81 25 18 118 45 39 168 84 79 241 158 150 168 88 80 128 54 38 138 70 41 247 180 145 245 182 146 205 143 109 216 154 119 187 128 91 202 144 108 209 154 117 212 161 124 212 162 126 232 180 144 189 130 96 167 111 80 166 122 94 127 96 72 87 69 50 87 81 66 101 103 88 96 102 90 94 102 89 66 72 58 116 118 103 115 91 67 147 101 66 205 150 103 213 146 84
37 22 22 38 23 23 29 15 15 25 9 9 21 3 6 22 4 8 29 14 12 28 10 9 26 9 4 51 35 28 138 126 118 52 41 36 90 83 77 155 153 150 59 60 57 159 160 152 218 218 204 141 138 130 30 22 17 26 14 14 40 23 29 32 15 19 33 16 19 35 18 19 36 23 18 37 26 18 40 26 21 45 21 24 48 28 29 39 21 17 43 19 12 50 11 4 95 36 30 161 86 81 219 131 127 227 140 133 155 74 66 147 72 57 168 95 67 249 175 143 225 152 123 212 140 110 244 174 140 180 113 80 165 99 66 221 159 125 255 196 160 255 201 165 253 194 158 183 122 84 168 111 76 175 130 99 163 131 108 62 46 25 61 59 41 88 93 79 83 91 79 67 76 64 97 104 90 62 66 48 118 96 74 132 90 61 202 151 109 212 148 95
28 14 14 40 26 26 39 25 25 26 10 10 22 6 8 25 8 10 29 12 11 32 15 14 30 12 8 24 9 2 117 104 96 95 86 79 57 50 45 168 167 162 65 66 62 131 132 125 215 215 203 186 182 174 48 40 36 26 14 12 43 25 30 33 16 22 35 18 19 31 16 15 32 19 17 37 26 18 45 26 25 48 22 29 51 28 32 36 17 17 39 15 10 53 14 10 87 30 24 159 86 81 219 134 129 218 131 124 166 86 73 152 74 57 170 88 64 255 172 143 232 145 120 198 116 88 255 173 144 238 158 129 187 109 80 195 119 89 235 160 130 255 189 157 238 167 134 166 101 67 154 97 62 170 126 96 126 94 69 104 88 67 43 38 23 52 55 41 95 103 91 45 53 40 61 68 54 123 126 111 101 84 65 106 70 46 172 128 91 195 140 88
8 0 0 28 14 14 48 35 35 33 17 17 17 1 3 24 8 10 36 21 19 47 30 29 52 35 30 31 16 9 83 70 62 118 109 102 35 29 23 173 172 167 102 103 99 91 93 86 208 206 195 203 199 192 82 74 70 29 16 16 46 29 32 35 18 22 33 17 17 30 14 12 29 16 14 33 22 16 45 26 26 54 24 36 45 19 30 39 17 21 50 26 25 55 18 16 83 28 25 140 70 66 173 93 84 217 133 122 201 124 105 166 89 67 196 108 83 244 151 126 227 136 111 191 101 75 235 145 120 255 175 148 238 150 124 198 115 87 191 108 80 197 113 86 182 99 70 136 67 35 183 127 94 158 113 83 160 128 105 101 84 66 73 69 55 76 80 66 57 65 52 110 118 106 79 84 73 83 87 74 106 96 81 99 75 57 124 88 58 170 125 81
16 2 2 19 6 6 50 36 36 44 28 28 17 1 3 26 9 11 35 18 18 45 28 26 57 39 35 44 29 22 41 29 21 108 98 91 38 31 25 155 153 148 152 153 150 67 68 61 192 191 183 219 215 209 119 111 108 17 4 3 43 26 26 33 17 18 31 15 15 28 12 11 28 15 11 29 18 12 38 19 21 48 16 31 44 18 31 37 16 23 45 24 26 52 18 19 76 25 25 131 64 60 124 46 37 197 118 103 216 141 119 196 123 94 234 148 123 218 128 103 189 101 75 190 102 76 242 153 128 252 165 137 255 168 141 232 145 119 201 115 89 167 80 53 146 62 35 132 62 30 172 116 82 167 122 93 120 88 65 96 80 62 52 47 35 81 84 73 106 113 104 60 68 58 65 72 59 80 82 69 66 60 51 97 83 68 93 68 45 152 116 80
23 9 9 26 14 14 50 36 36 55 39 39 40 24 26 36 18 21 28 11 10 32 15 14 54 37 32 41 25 18 36 23 15 116 106 99 55 48 44 112 111 105 177 179 175 58 59 54 167 165 160 226 221 217 146 138 133 24 11 9 67 51 48 51 35 35 19 3 2 35 18 17 25 11 10 29 17 15 31 12 16 35 4 19 44 18 32 35 17 26 39 22 26 53 26 29 62 17 18 103 41 39 99 28 18 166 93 73 220 152 125 221 152 123 205 130 99 221 141 113 183 104 75 206 126 97 238 157 129 219 138 111 247 168 139 246 167 138 231 151 123 189 110 81 145 67 37 136 68 36 169 113 82 163 118 91 136 104 82 83 67 50 86 82 69 60 65 54 47 54 45 91 99 90 65 70 59 64 67 57 106 108 101 72 66 57 82 65 47 127 99 70
30 16 16 40 26 26 46 32 32 54 38 37 52 36 38 41 24 28 29 12 11 28 10 9 54 37 32 38 22 15 36 23 15 84 73 66 33 26 21 70 69 65 201 202 198 73 74 70 133 132 128 224 219 216 196 188 183 112 101 96 155 138 134 73 57 53 12 0 0 39 23 23 22 9 7 26 15 12 30 11 16 38 9 23 40 16 29 29 15 24 37 24 29 47 26 30 51 15 16 95 40 38 101 35 25 113 47 28 217 153 127 224 160 128 175 111 77 203 133 101 180 111 79 190 122 89 184 115 82 198 128 96 238 168 136 247 175 143 242 172 139 211 139 109 157 86 54 130 66 35 172 115 87 161 116 90 126 94 73 91 74 59 55 51 39 50 53 44 81 87 80 69 77 69 70 76 68 90 94 86 89 94 88 95 95 91 89 80 68 101 80 57
37 23 23 41 28 28 41 28 28 46 30 29 40 24 26 38 21 24 40 24 23 35 16 16 43 25 21 30 14 7 40 26 19 37 28 21 52 45 39 87 86 81 191 192 189 110 112 109 124 122 119 208 203 199 220 212 209 163 152 146 165 148 143 58 43 36 22 6 0 30 15 12 22 8 7 22 10 10 31 11 17 39 14 23 28 10 17 18 10 16 26 21 24 38 25 26 35 6 7 76 31 30 95 37 31 66 7 0 202 144 118 242 187 153 189 131 95 134 75 39 143 82 46 170 110 74 161 98 64 215 150 117 239 173 139 250 183 151 245 175 143 215 145 112 160 93 60 134 72 40 173 116 88 157 111 87 162 129 111 102 84 72 79 74 66 45 47 41 69 76 70 89 96 89 50 54 47 76 81 73 88 95 90 68 73 72 98 96 86 113 99 82
21 7 7 29 15 15 39 25 25 40 24 24 33 16 18 28 10 14 39 23 22 48 30 30 46 29 24 21 4 0 102 89 81 93 83 76 139 132 127 176 175 170 169 169 166 125 125 123 133 131 130 195 190 187 213 205 201 161 148 144 152 137 128 53 38 30 21 6 0 25 9 6 23 8 8 25 12 14 30 14 17 29 6 9 18 4 7 16 15 16 23 24 24 29 24 24 40 21 21 73 36 35 106 57 51 51 0 0 169 120 96 241 190 160 206 148 115 143 82 46 132 70 36 202 139 105 208 143 109 225 159 125 221 152 120 245 175 143 255 183 152 225 152 122 159 89 57 111 45 16 165 108 80 147 102 77 126 93 75 83 66 54 52 47 39 60 62 57 80 87 81 44 51 45 70 75 68 72 75 67 64 73 68 52 60 58 82 81 74 98 87 74
19 6 6 18 4 4 26 12 12 28 11 11 33 16 18 29 10 15 35 18 18 46 28 28 46 29 24 19 4 0 80 67 59 112 102 96 127 122 116 195 194 189 175 176 173 134 134 133 152 150 148 192 188 186 215 206 202 162 150 144 170 155 147 75 60 50 18 3 0 28 11 9 22 7 7 28 15 17 31 16 18 29 8 8 18 9 7 16 18 16 11 19 17 16 17 16 45 32 32 82 52 52 101 58 52 60 12 0 151 106 83 210 162 133 187 125 91 217 150 117 205 138 105 235 163 131 230 159 127 216 144 112 196 123 91 197 122 91 247 167 138 239 159 130 157 79 48 116 46 18 161 103 76 161 116 94 145 112 95 95 77 66 68 64 55 40 43 37 64 70 65 84 91 86 59 64 57 61 65 59 76 87 82 73 83 80 66 66 61 57 47 38
36 22 22 23 9 9 18 4 4 32 16 17 47 30 31 41 24 26 38 22 21 24 7 6 32 15 11 38 22 15 18 6 0 75 65 57 96 89 82 148 145 140 199 199 195 166 163 162 155 152 152 184 181 176 216 210 204 161 151 144 174 160 151 101 87 76 19 4 0 35 18 15 18 6 3 24 14 15 25 11 12 22 7 4 12 8 1 11 15 9 8 16 14 21 24 23 65 57 57 72 48 47 77 45 37 72 32 18 115 74 52 189 143 117 165 102 72 215 144 115 231 159 129 224 148 118 220 141 112 210 129 99 192 111 82 179 95 67 215 126 99 208 119 94 162 76 51 153 86 58 173 119 90 131 87 64 124 94 75 69 53 41 58 53 47 88 90 84 60 67 60 72 76 72 59 62 57 73 76 69 54 62 59 35 46 43 40 41 37 77 69 62
38 24 24 25 12 11 22 12 10 26 18 15 37 24 24 51 35 33 38 24 22 23 9 6 26 14 8 22 11 2 29 18 10 44 32 24 110 97 88 130 116 108 216 199 191 198 184 180 182 172 169 189 187 180 215 216 205 175 175 161 169 165 150 110 95 86 23 6 0 30 14 8 22 12 7 11 12 7 15 16 10 11 6 3 17 8 7 18 8 10 18 9 12 44 38 38 88 83 82 50 43 39 53 39 32 67 41 32 61 25 15 139 95 81 175 122 103 216 157 133 194 128 102 184 109 77 210 125 89 212 123 86 244 147 113 238 140 111 215 119 94 176 83 62 157 70 52 157 102 70 143 106 72 134 104 76 79 60 38 58 50 36 54 52 44 70 73 65 93 96 88 68 70 62 50 50 40 48 45 35 41 40 36 50 53 52 61 62 60 57 52 48
35 19 18 18 7 6 15 9 6 19 15 11 21 10 8 46 31 30 44 31 29 19 9 3 21 12 4 23 15 7 30 19 10 23 10 1 99 83 74 113 93 84 189 166 157 216 195 190 195 182 180 198 197 187 210 213 201 173 177 161 170 168 153 130 116 105 26 7 0 37 17 10 26 19 12 9 15 6 14 22 14 16 17 15 19 11 12 25 11 15 48 33 39 86 74 79 87 83 81 29 29 23 36 30 23 66 45 37 40 3 0 76 28 23 157 106 94 223 166 147 177 112 88 160 84 52 192 105 68 213 118 77 252 151 115 230 129 99 182 86 61 159 64 47 157 72 57 144 97 67 146 118 84 93 68 40 111 95 75 55 50 36 79 79 69 83 86 79 81 83 77 55 57 48 36 32 22 47 43 30 89 87 83 87 87 88 45 45 45 11 11 9
35 21 21 19 8 7 17 8 6 17 14 9 11 1 0 35 21 18 40 28 25 18 9 3 21 12 6 30 22 15 37 26 18 26 15 6 75 59 51 110 90 83 148 126 119 219 199 195 205 194 191 205 203 194 216 217 205 183 186 170 161 157 141 153 138 128 30 8 0 30 11 4 21 12 7 17 19 11 21 28 19 19 23 19 36 33 31 62 52 54 96 82 88 105 96 98 54 50 48 11 8 3 30 21 15 77 54 47 53 11 7 60 4 1 105 51 37 188 129 111 177 109 86 154 75 46 188 97 65 217 120 86 212 113 81 186 87 59 158 65 43 159 66 53 131 48 36 91 45 19 146 120 91 96 72 51 73 57 43 38 32 21 22 23 16 48 50 46 48 52 48 57 58 53 108 106 97 129 126 117 73 70 69 24 24 26 7 7 7 19 17 17
38 25 24 28 16 15 26 17 15 18 11 9 12 2 1 24 10 9 29 17 14 28 17 15 30 21 16 25 19 12 35 26 18 41 31 23 51 36 29 127 110 101 140 120 112 208 188 184 216 203 201 205 202 192 219 220 208 204 205 190 144 138 125 145 130 120 47 25 17 43 23 16 36 26 21 24 25 17 19 28 18 35 43 38 77 77 75 83 76 77 76 64 68 75 65 67 41 36 35 23 17 12 33 19 15 72 43 38 57 8 7 61 1 0 83 23 11 174 110 94 244 170 150 227 143 119 232 139 112 255 161 134 240 138 115 205 106 84 163 72 55 154 65 57 111 31 24 73 30 10 69 47 25 62 44 28 81 68 59 90 84 80 69 69 69 82 83 83 109 110 112 132 134 133 102 99 97 46 41 38 22 21 21 19 19 22 23 23 24 37 35 36
30 17 16 25 14 12 29 19 17 23 12 11 17 7 4 23 11 10 30 17 16 32 23 21 28 22 18 21 15 9 25 17 10 43 33 25 33 21 14 99 83 76 133 115 108 180 160 157 215 202 199 206 201 192 206 208 195 216 216 202 147 141 128 118 102 91 67 45 37 60 38 31 62 51 45 47 46 39 40 48 40 38 51 45 46 51 46 55 51 51 52 40 44 37 25 29 33 25 25 31 23 19 24 7 3 66 31 28 66 10 11 77 10 11 91 24 15 145 74 60 227 150 131 226 138 119 210 115 94 219 120 98 220 120 102 209 113 99 161 74 64 133 52 47 86 15 11 50 12 0 54 35 21 73 57 47 83 73 68 46 40 40 60 59 62 109 109 113 110 111 116 52 53 57 32 31 33 54 52 54 55 55 58 52 51 55 61 61 64 76 75 76
18 7 6 15 3 2 22 10 9 23 11 10 18 7 6 23 11 11 31 21 19 28 19 17 22 16 11 22 16 11 26 17 12 33 24 17 24 11 7 57 39 37 118 97 91 146 127 125 213 199 198 211 204 196 201 201 189 216 216 202 166 158 145 110 93 82 69 44 37 32 9 3 30 17 12 18 17 10 17 26 17 14 30 21 19 25 21 32 29 29 31 21 25 32 22 24 54 46 46 41 30 29 19 0 0 76 36 35 95 35 37 95 22 23 95 22 12 97 19 7 132 48 35 160 69 53 165 69 52 173 75 59 176 82 69 148 64 54 127 50 44 119 51 47 76 17 17 55 24 19 60 46 39 59 46 41 36 28 26 41 38 40 46 46 52 44 46 52 46 47 54 64 64 70 82 81 87 82 81 87 84 83 89 87 86 91 79 79 81 69 68 69
23 11 10 22 10 9 18 7 6 17 4 4 19 8 8 17 7 8 16 7 7 15 9 7 16 10 7 15 10 7 19 14 8 29 19 15 38 25 21 57 40 37 111 91 87 127 108 105 208 190 190 217 209 201 216 213 202 218 216 202 184 176 163 118 99 89 74 47 41 31 8 2 30 17 12 21 18 11 14 23 14 9 23 16 19 26 21 22 18 18 33 24 28 52 41 44 51 40 41 28 15 12 24 0 0 93 47 47 133 70 73 120 41 45 148 67 60 109 22 12 102 8 0 132 36 26 145 47 38 132 38 28 122 33 25 113 37 32 104 40 37 93 40 40 80 36 38 77 55 55 81 69 68 96 87 86 109 104 104 115 112 117 115 113 122 116 116 125 116 116 125 116 116 125 112 112 120 109 110 116 112 111 117 101 99 105 80 79 84 69 68 72
26 16 14 36 25 23 38 26 25 23 8 8 15 3 4 16 6 9 14 7 7 15 9 8 18 14 11 18 15 11 24 19 15 48 41 38 62 52 48 47 35 29 89 72 67 134 116 115 183 165 165 218 209 202 202 198 188 219 217 203 199 190 177 129 110 101 76 52 45 38 15 9 32 18 12 22 18 11 11 18 11 2 15 9 7 11 8 19 15 15 59 47 52 52 39 43 28 17 17 26 12 10 23 0 0 79 35 35 134 72 76 151 72 75 167 75 69 122 24 17 134 36 31 162 62 57 162 65 60 160 69 64 155 76 73 133 69 68 81 33 33 60 25 25 88 62 64 112 101 102 128 123 124 134 131 133 146 144 148 152 151 157 141 140 146 146 147 154 145 147 155 140 144 152 132 134 144 125 127 136 118 117 125 109 108 115 99 98 104 90 88 94
17 8 6 28 16 15 43 29 29 31 16 15 15 2 4 12 4 7 15 8 10 21 16 16 29 28 25 35 33 30 38 33 30 39 35 30 47 38 33 29 17 12 60 44 41 130 110 110 155 136 136 212 204 196 192 188 179 215 212 197 213 202 189 140 119 111 79 52 45 41 15 11 30 16 10 21 16 9 14 18 11 9 18 14 10 11 8 32 23 25 50 36 40 35 22 26 29 17 18 36 23 21 23 0 0 53 10 9 116 53 57 160 80 84 159 60 57 134 29 25 154 50 47 159 57 54 146 50 47 155 70 69 136 66 66 79 29 30 35 3 4 28 10 11 59 52 52 106 104 105 147 145 150 152 152 155 154 154 159 173 172 177 168 167 173 160 162 167 162 165 172 159 163 170 150 154 160 140 145 153 130 131 139 125 124 130 117 116 123 109 106 112
9 0 0 12 1 0 37 22 23 37 19 21 24 11 15 23 16 18 24 18 21 24 22 23 26 24 24 29 28 25 32 28 24 24 19 15 32 23 19 30 17 15 31 16 15 98 79 79 129 109 110 194 182 176 195 190 180 209 204 191 218 206 195 152 130 123 83 55 48 43 16 11 29 12 9 25 19 14 19 24 17 10 17 12 15 14 11 39 29 31 32 18 23 37 22 26 39 26 28 38 25 23 31 4 4 36 0 0 67 4 7 128 46 51 169 64 60 148 37 33 136 25 25 143 38 38 161 66 67 150 67 69 88 26 28 41 2 3 28 10 10 15 15 16 8 18 19 37 43 46 116 116 122 169 170 175 180 181 186 175 176 181 168 170 174 181 182 187 176 179 184 170 175 179 157 162 167 146 153 159 134 136 145 125 124 132 118 118 124 117 115 122
17 7 6 17 6 4 39 24 25 36 18 19 19 7 11 22 14 18 26 21 23 26 23 24 21 18 19 17 17 15 26 24 19 30 24 22 26 18 16 31 18 16 26 11 9 76 58 57 102 83 83 173 161 155 203 198 188 209 203 190 224 211 201 163 141 133 93 65 59 48 23 18 35 17 14 37 31 25 31 35 28 19 23 18 22 17 15 31 18 21 33 17 23 43 25 30 43 29 30 44 30 29 46 23 22 53 12 12 43 0 0 105 25 30 169 62 61 163 50 48 136 25 25 161 60 60 161 69 72 99 24 28 51 0 0 33 3 6 26 19 18 4 15 15 7 28 26 26 36 39 40 45 50 75 80 81 126 127 129 165 166 168 179 180 182 181 182 184 175 179 182 168 174 177 160 166 172 152 160 163 157 159 166 144 143 151 125 123 130 122 120 126
25 11 10 24 9 8 38 22 22 43 26 25 36 18 19 35 17 19 26 11 15 23 12 15 25 16 19 18 11 12 21 14 16 22 12 15 22 11 11 28 16 14 25 10 9 60 46 44 82 74 70 145 137 133 211 206 197 204 198 188 228 216 205 170 152 145 84 60 57 46 23 22 38 15 17 52 32 37 51 37 38 38 25 23 30 16 14 18 1 1 37 17 18 51 31 33 31 16 16 51 39 38 138 125 125 73 55 54 17 0 0 48 8 8 129 47 53 147 59 65 138 57 62 141 70 75 97 36 39 39 0 0 35 2 3 38 21 19 36 31 28 36 40 37 59 70 67 74 81 81 38 41 45 14 18 18 26 30 30 74 79 79 128 131 131 148 152 152 154 159 158 150 155 157 140 145 147 140 145 147 140 145 147 129 129 133 109 109 115 94 95 99
19 1 2 19 2 3 38 22 22 44 29 29 58 38 37 48 26 28 23 3 6 22 7 11 30 17 23 24 14 19 23 12 17 25 12 17 33 21 23 24 10 9 24 9 6 36 24 19 67 61 57 126 120 113 206 198 189 209 197 188 219 205 195 169 152 144 91 70 66 41 18 17 26 0 3 53 24 31 52 25 29 47 24 19 46 24 19 37 15 10 38 15 12 58 36 35 29 10 10 80 66 66 148 139 139 33 31 29 0 2 0 4 0 0 55 0 8 116 54 62 140 88 94 88 45 50 44 10 14 37 14 12 39 26 23 54 47 44 66 65 60 69 72 65 68 70 66 48 53 52 30 33 32 23 26 25 14 18 17 30 35 33 73 76 75 96 101 99 103 108 106 118 122 120 126 130 129 124 127 125 119 125 124 115 118 120 102 102 105 82 83 88
28 11 11 21 4 4 30 14 14 36 21 21 37 18 18 32 12 12 24 8 9 19 7 10 18 7 12 29 18 23 16 8 10 31 22 24 47 36 37 23 9 7 36 21 15 28 14 6 46 33 25 99 84 76 196 182 169 220 203 190 219 199 188 166 144 132 112 88 77 115 87 80 67 37 35 31 0 0 48 21 17 46 21 12 28 1 0 46 19 14 35 8 3 32 7 2 44 22 19 128 111 110 82 72 69 0 0 0 11 12 11 17 8 9 26 0 0 65 19 26 97 59 65 50 19 23 21 1 2 44 35 32 55 54 51 72 75 72 90 97 94 95 105 101 86 95 91 60 65 64 36 38 37 29 31 30 24 26 25 26 29 28 52 54 53 79 81 80 93 95 94 128 130 129 161 163 162 160 162 161 158 161 163 158 162 166 147 148 153 128 130 134
53 37 37 30 15 15 17 3 3 35 21 21 40 25 24 31 15 15 21 6 6 16 4 6 18 8 10 21 12 16 9 3 3 29 21 19 52 41 38 28 15 9 41 28 17 32 14 4 51 28 18 62 39 28 153 131 117 225 199 183 195 169 151 159 130 112 150 122 104 154 125 110 154 123 110 101 67 57 38 7 0 96 65 53 101 69 59 147 117 108 162 131 124 62 31 26 59 33 29 134 116 112 35 21 21 0 0 0 11 9 8 16 10 10 35 11 14 21 0 0 28 8 9 33 21 22 35 30 29 48 51 47 80 89 86 103 116 111 104 118 115 102 117 115 97 110 108 75 81 80 43 44 43 26 29 28 19 23 22 25 28 26 46 48 47 82 84 83 117 119 118 147 150 148 180 182 181 191 194 194 191 195 198 190 194 199 184 184 190 167 167 176
58 41 41 37 22 22 25 10 10 37 23 23 58 44 43 54 40 38 22 9 9 16 6 7 28 19 21 18 11 12 22 15 14 31 24 18 53 41 35 45 32 22 45 29 17 36 10 0 115 81 69 148 115 101 126 94 75 144 111 90 115 81 58 122 88 61 167 133 110 110 75 52 143 110 88 205 168 150 144 110 91 198 165 147 198 163 150 206 172 159 216 181 172 101 66 60 37 7 2 61 37 33 14 0 0 26 14 12 15 7 6 15 7 7 25 14 14 29 14 17 25 16 17 36 33 35 61 64 65 79 87 86 112 124 124 139 151 151 130 143 144 118 130 131 99 111 112 74 77 79 45 46 45 31 32 32 24 25 24 29 30 29 51 53 52 97 99 98 143 144 143 165 166 165 190 191 190 204 204 205 205 209 212 205 210 216 202 202 208 189 189 198
51 35 35 40 24 24 32 15 16 29 11 11 18 4 2 53 40 38 48 37 37 15 4 4 22 14 14 21 15 14 25 18 16 28 19 12 51 39 29 70 55 40 50 31 16 94 64 47 175 133 119 173 131 113 111 72 48 90 51 25 119 82 52 106 72 39 127 91 60 143 106 77 146 110 83 169 132 108 202 166 144 199 162 146 162 126 111 160 123 111 113 76 68 73 37 31 47 12 8 31 1 0 21 0 0 32 15 15 12 0 0 16 3 6 22 9 12 38 26 31 47 41 44 51 48 52 87 88 91 119 123 125 136 143 145 147 153 158 145 151 155 150 154 160 131 132 140 105 105 108 67 67 67 39 38 39 23 23 23 31 31 31 66 66 66 116 115 116 152 151 151 175 174 175 206 206 206 210 211 211 216 218 221 221 224 231 216 217 223 208 208 217
47 28 30 32 12 14 32 11 14 31 9 11 18 1 1 50 38 35 39 28 24 19 10 8 29 18 17 26 17 15 35 24 19 40 29 21 48 31 19 45 25 8 52 30 11 154 122 102 140 93 73 127 81 59 166 122 95 139 98 68 166 126 95 131 94 60 134 97 65 186 148 118 168 133 104 177 143 116 219 186 162 174 140 127 141 106 94 95 59 46 72 33 25 73 35 28 68 32 30 50 15 14 40 12 12 43 18 19 50 30 31 40 21 24 39 23 30 61 46 54 54 44 50 72 65 69 113 110 117 130 128 133 154 151 159 169 165 176 173 168 179 177 170 182 153 144 155 130 129 132 87 87 87 41 41 41 25 25 25 28 28 28 70 70 70 119 119 119 157 157 157 184 184 184 209 209 209 221 223 221 224 226 226 221 225 228 217 218 223 206 208 216
33 10 12 26 2 4 41 16 19 44 19 23 36 17 17 50 35 33 40 26 24 40 28 25 38 25 23 33 22 18 29 15 7 26 9 0 65 41 29 57 32 14 119 91 69 187 148 126 123 74 50 175 127 102 198 151 124 160 118 87 219 180 147 177 140 106 127 94 60 148 117 88 130 99 72 184 154 130 194 163 144 157 128 118 88 55 46 41 9 1 65 29 24 64 26 23 62 25 24 54 18 18 53 18 19 57 25 26 74 46 47 72 47 50 68 48 54 61 45 51 51 37 44 94 83 89 122 111 120 141 134 141 170 162 170 188 176 188 201 188 202 203 189 203 172 155 169 147 143 146 110 109 110 55 54 55 33 32 33 35 32 33 65 64 65 112 110 111 163 162 163 194 192 192 210 209 210 223 221 223 223 224 224 219 224 223 217 218 220 204 205 211
53 25 30 44 14 19 41 9 15 36 4 10 30 6 8 39 19 19 51 35 33 69 53 52 44 28 26 19 2 0 67 48 40 111 88 76 157 130 113 177 146 126 112 80 55 205 163 138 205 155 128 189 140 113 187 140 111 155 113 82 204 165 132 190 155 125 137 108 77 130 103 76 139 115 93 186 160 140 132 111 96 65 40 36 45 19 16 57 28 25 58 24 24 81 46 46 79 40 41 73 32 33 74 36 37 67 30 31 77 44 41 70 41 44 76 57 60 61 45 50 60 46 50 110 99 105 127 119 125 157 148 157 176 169 176 192 183 192 218 206 217 231 216 230 206 191 204 167 160 165 124 120 122 61 58 59 37 33 35 40 37 39 67 65 66 110 108 109 169 166 167 206 203 205 223 220 221 226 224 225 223 224 221 217 221 217 208 210 208 190 191 192
67 33 39 52 18 24 41 6 12 55 19 28 44 15 19 32 9 9 36 15 16 52 32 32 39 19 17 25 4 0 88 65 57 189 160 148 196 163 146 216 181 158 132 94 68 86 40 14 122 70 43 96 47 18 158 116 84 177 137 105 176 139 109 186 154 125 122 96 69 111 88 68 132 112 95 76 58 44 18 2 0 11 0 0 77 59 61 95 72 73 50 21 23 80 46 50 65 26 30 66 25 29 76 36 37 69 30 30 83 44 43 69 37 37 55 40 41 53 43 44 68 61 62 109 105 108 127 127 126 167 167 168 181 181 183 189 189 195 213 210 217 226 220 227 213 206 215 184 177 183 125 120 122 59 54 55 35 30 31 31 26 28 57 52 53 97 93 94 155 151 152 181 176 177 192 188 189 209 205 205 208 210 204 191 197 187 172 174 168 151 153 151
55 18 25 51 12 21 60 21 29 93 53 61 101 70 74 83 60 59 44 21 22 31 8 7 36 12 10 50 25 19 50 23 15 81 51 37 104 69 51 169 130 108 190 147 123 136 91 61 151 103 73 160 115 82 118 76 44 186 147 116 187 153 123 168 140 113 146 124 101 91 72 53 23 7 0 0 0 0 36 23 19 14 4 9 28 15 21 101 82 88 94 68 75 73 40 46 66 30 35 69 29 33 70 28 30 64 22 22 82 38 37 66 31 28 44 35 31 33 32 28 66 67 62 102 105 103 125 131 128 157 167 163 174 184 182 186 194 194 203 210 211 205 211 212 199 203 206 180 177 181 109 104 105 59 54 55 44 39 40 26 22 23 47 43 44 50 45 46 64 59 60 83 79 80 120 116 117 143 138 139 139 141 133 122 128 115 98 102 93 76 80 74
